<svg xmlns="http://www.w3.org/2000/svg" viewBox="0 96 960 960" ><path d="M485.08 309q-35.43 0-59.255-24.42Q402 260.159 402 225.54q0-33.62 24.381-58.58 24.38-24.96 59-24.96Q519 142 544 166.88q25 24.881 25 58.501Q569 260 544.461 284.5T485.08 309ZM691 973V765H512q-45.163 0-75.581-30.419Q406 704.162 406 660V442q0-33.875 23.5-55.938Q453 364 485.489 364q16.174 0 31.843 6.5Q533 377 556.267 400.292 597 440 652.5 472.5 708 505 772 510v69q-47 0-100.867-21.474Q617.265 536.051 567 497v175h111q38.4 0 65.7 27.3Q771 726.6 771 766v207h-80Zm-300.412 11q-86.169 0-145.378-59.21Q186 865.581 186 779.412 186 709 239 646.5T379 577v80.312q-53 4.688-82.5 42.111-29.5 37.424-29.5 79.244Q267 834 301.667 869.5 336.333 905 391 905q41.56 0 79.28-30T512 793h82q-7 86-70 138.5T390.588 984Z"/></svg>