<svg viewBox="0 0 180 52" fill="none" xmlns="http://www.w3.org/2000/svg">
    <path d="M179 46.0031C179 48.7743 176.709 51.0189 173.874 51.0189H6.13243C3.2995 51.0189 1 48.7743 1 46.0031V6.00357C1 3.23374 3.2995 0.981201 6.13243 0.981201H173.873C176.709 0.981201 178.999 3.23374 178.999 6.00357L179 46.0031Z" fill="#262626"/>
    <path d="M173.333 1.04163C176.42 1.04163 178.932 3.4905 178.932 6.5V45.5C178.932 48.5095 176.42 50.9584 173.333 50.9584H6.66667C3.58 50.9584 1.06833 48.5095 1.06833 45.5V6.5C1.06833 3.4905 3.58 1.04163 6.66667 1.04163H173.333ZM173.333 2.74817e-06H6.66667C3.00167 2.74817e-06 0 2.92663 0 6.5V45.5C0 49.0734 3.00167 52 6.66667 52H173.333C176.998 52 180 49.0734 180 45.5V6.5C180 2.92663 176.998 2.74817e-06 173.333 2.74817e-06Z" fill="#404040"/>
    <path d="M40.1707 25.7191C40.132 21.5292 43.6893 19.4908 43.852 19.3959C41.8373 16.532 38.7147 16.1407 37.6173 16.1095C34.9947 15.8404 32.4507 17.6396 31.1147 17.6396C29.752 17.6396 27.6947 16.1355 25.4773 16.1797C22.624 16.2226 19.9547 17.8333 18.4907 20.3345C15.4693 25.4344 17.7227 32.9289 20.6173 37.0512C22.0653 39.0701 23.7573 41.3243 25.972 41.245C28.1387 41.1579 28.948 39.8982 31.5627 39.8982C34.1533 39.8982 34.9133 41.245 37.172 41.1943C39.4973 41.1579 40.9613 39.1663 42.3587 37.1292C44.032 34.8152 44.704 32.5363 44.7307 32.4193C44.676 32.4011 40.2147 30.741 40.1707 25.7191Z" fill="#E5E5E5"/>
    <path d="M35.904 13.3977C37.0693 11.9768 37.8667 10.0437 37.6453 8.08203C35.9587 8.15483 33.8493 9.21953 32.6347 10.6092C31.56 11.8338 30.6 13.841 30.848 15.7286C32.7427 15.8664 34.688 14.7965 35.904 13.3977Z" fill="#E5E5E5"/>
    <path d="M65.4 13.0116C65.4 14.5417 64.9294 15.6935 63.9894 16.467C63.1187 17.1807 61.8814 17.5382 60.2787 17.5382C59.484 17.5382 58.804 17.5044 58.2347 17.4368V9.07646C58.9773 8.95946 59.7773 8.89966 60.6413 8.89966C62.168 8.89966 63.3187 9.22336 64.0947 9.87076C64.964 10.6027 65.4 11.6492 65.4 13.0116ZM63.9267 13.0493C63.9267 12.0574 63.6574 11.2969 63.1187 10.7665C62.58 10.2374 61.7934 9.97216 60.7574 9.97216C60.3174 9.97216 59.9427 10.0008 59.632 10.0606V16.4163C59.804 16.4423 60.1187 16.454 60.576 16.454C61.6454 16.454 62.4707 16.1641 63.052 15.5843C63.6334 15.0045 63.9267 14.1595 63.9267 13.0493Z" fill="#E5E5E5"/>
    <path d="M73.212 14.3479C73.212 15.2904 72.936 16.0626 72.384 16.6684C71.8054 17.2911 71.0387 17.6018 70.0814 17.6018C69.1587 17.6018 68.424 17.3041 67.876 16.7061C67.3294 16.1094 67.056 15.3567 67.056 14.4493C67.056 13.5003 67.3374 12.7216 67.9027 12.1171C68.468 11.5126 69.228 11.2097 70.1854 11.2097C71.108 11.2097 71.8494 11.5074 72.4107 12.1041C72.944 12.6839 73.212 13.4327 73.212 14.3479ZM71.7627 14.3921C71.7627 13.8266 71.6374 13.3417 71.388 12.9374C71.0947 12.4486 70.6774 12.2042 70.1347 12.2042C69.5734 12.2042 69.1467 12.4486 68.8534 12.9374C68.6027 13.3417 68.4787 13.8344 68.4787 14.4168C68.4787 14.9823 68.604 15.4672 68.8534 15.8715C69.156 16.3603 69.5774 16.6047 70.1214 16.6047C70.6547 16.6047 71.0734 16.3564 71.3747 15.8585C71.6334 15.4464 71.7627 14.9576 71.7627 14.3921Z" fill="#E5E5E5"/>
    <path d="M83.6867 11.3347L81.72 17.4629H80.44L79.6253 14.8018C79.4187 14.1375 79.2507 13.4771 79.12 12.8219H79.0947C78.9733 13.4953 78.8053 14.1544 78.5893 14.8018L77.724 17.4629H76.4293L74.58 11.3347H76.016L76.7267 14.248C76.8987 14.937 77.04 15.5935 77.1533 16.2149H77.1787C77.2827 15.7027 77.4547 15.0501 77.6973 14.261L78.5893 11.336H79.728L80.5827 14.1986C80.7893 14.8967 80.9573 15.5688 81.0867 16.2162H81.1253C81.22 15.5857 81.3627 14.9136 81.552 14.1986L82.3147 11.336H83.6867V11.3347Z" fill="#E5E5E5"/>
    <path d="M90.9307 17.4627H89.5334V13.9527C89.5334 12.8711 89.112 12.3303 88.2667 12.3303C87.852 12.3303 87.5174 12.4785 87.2574 12.7762C87 13.0739 86.8694 13.4249 86.8694 13.8266V17.4614H85.472V13.0856C85.472 12.5474 85.4547 11.9637 85.4214 11.3319H86.6494L86.7147 12.29H86.7534C86.9161 11.9923 87.1587 11.7466 87.4774 11.5503C87.856 11.3215 88.28 11.2058 88.744 11.2058C89.3307 11.2058 89.8187 11.3904 90.2067 11.7609C90.6894 12.2146 90.9307 12.8919 90.9307 13.7915V17.4627V17.4627Z" fill="#E5E5E5"/>
    <path d="M94.784 17.4628H93.388V8.52271H94.784V17.4628Z" fill="#E5E5E5"/>
    <path d="M103.011 14.3479C103.011 15.2904 102.735 16.0626 102.183 16.6684C101.604 17.2911 100.836 17.6018 99.88 17.6018C98.956 17.6018 98.2213 17.3041 97.6747 16.7061C97.128 16.1094 96.8547 15.3567 96.8547 14.4493C96.8547 13.5003 97.136 12.7216 97.7013 12.1171C98.2667 11.5126 99.0267 11.2097 99.9827 11.2097C100.907 11.2097 101.647 11.5074 102.209 12.1041C102.743 12.6839 103.011 13.4327 103.011 14.3479ZM101.56 14.3921C101.56 13.8266 101.435 13.3417 101.185 12.9374C100.893 12.4486 100.475 12.2042 99.9333 12.2042C99.3707 12.2042 98.944 12.4486 98.652 12.9374C98.4013 13.3417 98.2773 13.8344 98.2773 14.4168C98.2773 14.9823 98.4027 15.4672 98.652 15.8715C98.9547 16.3603 99.376 16.6047 99.92 16.6047C100.453 16.6047 100.871 16.3564 101.172 15.8585C101.432 15.4464 101.56 14.9576 101.56 14.3921Z" fill="#E5E5E5"/>
    <path d="M109.773 17.4627H108.519L108.415 16.7568H108.376C107.947 17.3197 107.335 17.6018 106.54 17.6018C105.947 17.6018 105.467 17.4159 105.105 17.0467C104.777 16.7113 104.613 16.294 104.613 15.7987C104.613 15.0499 104.933 14.4792 105.577 14.084C106.22 13.6888 107.124 13.4951 108.288 13.5042V13.3898C108.288 12.5825 107.853 12.1795 106.983 12.1795C106.363 12.1795 105.816 12.3316 105.344 12.6332L105.06 11.7388C105.644 11.3865 106.365 11.2097 107.216 11.2097C108.859 11.2097 109.683 12.0547 109.683 13.7447V16.0015C109.683 16.6138 109.713 17.1013 109.773 17.4627ZM108.323 15.3567V14.4116C106.781 14.3856 106.011 14.7977 106.011 15.6466C106.011 15.9664 106.099 16.2056 106.279 16.3655C106.459 16.5254 106.688 16.6047 106.961 16.6047C107.268 16.6047 107.555 16.5098 107.816 16.3213C108.079 16.1315 108.24 15.891 108.3 15.5959C108.315 15.5296 108.323 15.449 108.323 15.3567Z" fill="#E5E5E5"/>
    <path d="M117.713 17.4628H116.473L116.408 16.4787H116.369C115.973 17.2275 115.299 17.6019 114.351 17.6019C113.593 17.6019 112.963 17.312 112.463 16.7322C111.963 16.1524 111.713 15.3997 111.713 14.4754C111.713 13.4835 111.984 12.6801 112.528 12.0665C113.055 11.4945 113.7 11.2085 114.468 11.2085C115.312 11.2085 115.903 11.4854 116.239 12.0405H116.265V8.52271H117.664V15.8118C117.664 16.4085 117.68 16.9584 117.713 17.4628ZM116.265 14.8784V13.8566C116.265 13.6798 116.252 13.5368 116.227 13.4276C116.148 13.1 115.979 12.8244 115.721 12.6021C115.461 12.3798 115.148 12.268 114.787 12.268C114.265 12.268 113.857 12.4695 113.557 12.8738C113.26 13.2781 113.109 13.7942 113.109 14.4247C113.109 15.0305 113.252 15.5219 113.539 15.9002C113.841 16.3032 114.249 16.5047 114.76 16.5047C115.219 16.5047 115.585 16.337 115.864 16.0003C116.133 15.6896 116.265 15.3152 116.265 14.8784Z" fill="#E5E5E5"/>
    <path d="M129.664 14.3479C129.664 15.2904 129.388 16.0626 128.836 16.6684C128.257 17.2911 127.492 17.6018 126.533 17.6018C125.612 17.6018 124.877 17.3041 124.328 16.7061C123.781 16.1094 123.508 15.3567 123.508 14.4493C123.508 13.5003 123.789 12.7216 124.355 12.1171C124.92 11.5126 125.68 11.2097 126.639 11.2097C127.56 11.2097 128.303 11.5074 128.863 12.1041C129.396 12.6839 129.664 13.4327 129.664 14.3479ZM128.216 14.3921C128.216 13.8266 128.091 13.3417 127.841 12.9374C127.547 12.4486 127.131 12.2042 126.587 12.2042C126.027 12.2042 125.6 12.4486 125.305 12.9374C125.055 13.3417 124.931 13.8344 124.931 14.4168C124.931 14.9823 125.056 15.4672 125.305 15.8715C125.608 16.3603 126.029 16.6047 126.573 16.6047C127.107 16.6047 127.527 16.3564 127.828 15.8585C128.085 15.4464 128.216 14.9576 128.216 14.3921Z" fill="#E5E5E5"/>
    <path d="M137.177 17.4627H135.781V13.9527C135.781 12.8711 135.36 12.3303 134.513 12.3303C134.099 12.3303 133.764 12.4785 133.505 12.7762C133.247 13.0739 133.117 13.4249 133.117 13.8266V17.4614H131.719V13.0856C131.719 12.5474 131.703 11.9637 131.669 11.3319H132.896L132.961 12.29H133C133.164 11.9923 133.407 11.7466 133.724 11.5503C134.104 11.3215 134.527 11.2058 134.992 11.2058C135.577 11.2058 136.065 11.3904 136.453 11.7609C136.937 12.2146 137.177 12.8919 137.177 13.7915V17.4627V17.4627Z" fill="#E5E5E5"/>
    <path d="M146.581 12.355H145.043V15.332C145.043 16.0886 145.316 16.4669 145.857 16.4669C146.108 16.4669 146.316 16.4461 146.48 16.4032L146.516 17.4367C146.24 17.5381 145.877 17.5888 145.431 17.5888C144.879 17.5888 144.449 17.425 144.139 17.0974C143.827 16.7698 143.672 16.2186 143.672 15.4451V12.355H142.753V11.3345H143.672V10.2113L145.041 9.80835V11.3332H146.58V12.355H146.581Z" fill="#E5E5E5"/>
    <path d="M153.979 17.4628H152.58V13.9788C152.58 12.8803 152.159 12.3304 151.315 12.3304C150.667 12.3304 150.224 12.6489 149.981 13.2859C149.94 13.4198 149.916 13.5836 149.916 13.776V17.4615H148.52V8.52271H149.916V12.216H149.943C150.383 11.5439 151.013 11.2085 151.831 11.2085C152.409 11.2085 152.888 11.3931 153.268 11.7636C153.741 12.2251 153.979 12.9115 153.979 13.8189V17.4628V17.4628Z" fill="#E5E5E5"/>
    <path d="M161.609 14.1087C161.609 14.3531 161.591 14.5585 161.557 14.7262H157.367C157.385 15.332 157.585 15.7935 157.973 16.1133C158.328 16.3993 158.785 16.5423 159.345 16.5423C159.965 16.5423 160.531 16.4461 161.04 16.2524L161.259 17.1988C160.663 17.451 159.961 17.5771 159.149 17.5771C158.176 17.5771 157.409 17.2976 156.855 16.7386C156.297 16.1796 156.021 15.4295 156.021 14.4883C156.021 13.564 156.279 12.7944 156.797 12.1808C157.339 11.5256 158.071 11.198 158.995 11.198C159.899 11.198 160.585 11.5256 161.049 12.1808C161.424 12.7008 161.609 13.3443 161.609 14.1087ZM160.276 13.7564C160.287 13.3521 160.195 13.0037 160.005 12.7099C159.763 12.3316 159.393 12.1418 158.893 12.1418C158.437 12.1418 158.065 12.3264 157.781 12.6969C157.549 12.992 157.412 13.3443 157.367 13.7564H160.276Z" fill="#E5E5E5"/>
    <path d="M71.5266 40.9552H68.4986L66.84 35.8735H61.0746L59.4946 40.9552H56.5466L62.2586 23.6548H65.7866L71.5266 40.9552ZM66.34 33.7415L64.84 29.224C64.6813 28.7625 64.384 27.6757 63.9453 25.9649H63.892C63.7173 26.7007 63.436 27.7875 63.0493 29.224L61.576 33.7415H66.34V33.7415Z" fill="#E5E5E5"/>
    <path d="M86.216 34.5645C86.216 36.6861 85.628 38.3631 84.452 39.5942C83.3987 40.6901 82.0907 41.2374 80.5293 41.2374C78.844 41.2374 77.6333 40.6472 76.896 39.4668H76.8427V46.0383H74V32.5872C74 31.2534 73.964 29.8845 73.8947 28.4805H76.3947L76.5533 30.4578H76.6067C77.5547 28.968 78.9933 28.2244 80.924 28.2244C82.4333 28.2244 83.6933 28.8055 84.7013 29.969C85.712 31.1338 86.216 32.6652 86.216 34.5645ZM83.32 34.6659C83.32 33.4517 83.04 32.4507 82.4773 31.6629C81.8627 30.8413 81.0373 30.4305 80.0027 30.4305C79.3013 30.4305 78.664 30.6593 78.0947 31.1104C77.524 31.5654 77.1506 32.1595 76.976 32.8953C76.888 33.2385 76.844 33.5193 76.844 33.7403V35.8203C76.844 36.7277 77.1293 37.4934 77.7 38.1187C78.2707 38.744 79.012 39.056 79.924 39.056C80.9947 39.056 81.828 38.653 82.424 37.8496C83.0213 37.0449 83.32 35.9841 83.32 34.6659Z" fill="#E5E5E5"/>
    <path d="M100.932 34.5645C100.932 36.6861 100.344 38.3631 99.1666 39.5942C98.1146 40.6901 96.8066 41.2374 95.2453 41.2374C93.5599 41.2374 92.3493 40.6472 91.6133 39.4668H91.5599V46.0383H88.7173V32.5872C88.7173 31.2534 88.6813 29.8845 88.6119 28.4805H91.1119L91.2706 30.4578H91.3239C92.2706 28.968 93.7093 28.2244 95.6413 28.2244C97.1493 28.2244 98.4093 28.8055 99.4199 29.969C100.427 31.1338 100.932 32.6652 100.932 34.5645ZM98.0359 34.6659C98.0359 33.4517 97.7546 32.4507 97.1919 31.6629C96.5773 30.8413 95.7546 30.4305 94.7186 30.4305C94.0159 30.4305 93.3799 30.6593 92.8093 31.1104C92.2386 31.5654 91.8666 32.1595 91.6919 32.8953C91.6053 33.2385 91.5599 33.5193 91.5599 33.7403V35.8203C91.5599 36.7277 91.8453 37.4934 92.4133 38.1187C92.9839 38.7427 93.7253 39.056 94.6399 39.056C95.7106 39.056 96.5439 38.653 97.1399 37.8496C97.7373 37.0449 98.0359 35.9841 98.0359 34.6659Z" fill="#E5E5E5"/>
    <path d="M117.385 36.1037C117.385 37.5753 116.861 38.7726 115.809 39.6969C114.653 40.707 113.044 41.2114 110.976 41.2114C109.067 41.2114 107.536 40.8526 106.377 40.1337L107.036 37.8236C108.284 38.5594 109.653 38.9286 111.145 38.9286C112.216 38.9286 113.049 38.692 113.648 38.2214C114.244 37.7508 114.541 37.119 114.541 36.3312C114.541 35.6292 114.296 35.0377 113.804 34.558C113.315 34.0783 112.497 33.6324 111.356 33.2203C108.249 32.0906 106.697 30.4357 106.697 28.2595C106.697 26.8373 107.241 25.6712 108.331 24.7638C109.416 23.8551 110.864 23.4014 112.675 23.4014C114.289 23.4014 115.631 23.6757 116.701 24.223L115.991 26.4824C114.991 25.952 113.86 25.6868 112.595 25.6868C111.595 25.6868 110.813 25.9273 110.253 26.4057C109.78 26.8334 109.543 27.3547 109.543 27.9722C109.543 28.656 109.813 29.2215 110.357 29.6661C110.831 30.0769 111.691 30.5215 112.939 31.0012C114.465 31.6005 115.587 32.3012 116.308 33.1046C117.027 33.9054 117.385 34.9077 117.385 36.1037Z" fill="#E5E5E5"/>
    <path d="M126.784 30.5604H123.651V36.6171C123.651 38.1576 124.203 38.9272 125.309 38.9272C125.817 38.9272 126.239 38.8843 126.572 38.7985L126.651 40.9032C126.091 41.1073 125.353 41.21 124.44 41.21C123.317 41.21 122.44 40.8759 121.807 40.209C121.176 39.5408 120.859 38.4202 120.859 36.8459V30.5578H118.992V28.4778H120.859V26.1937L123.651 25.3721V28.4778H126.784V30.5604Z" fill="#E5E5E5"/>
    <path d="M140.921 34.6151C140.921 36.5326 140.359 38.1069 139.236 39.338C138.059 40.6055 136.496 41.2373 134.548 41.2373C132.671 41.2373 131.176 40.6302 130.061 39.416C128.947 38.2018 128.389 36.6691 128.389 34.8218C128.389 32.8887 128.963 31.3053 130.113 30.0742C131.261 28.8418 132.811 28.2256 134.759 28.2256C136.636 28.2256 138.147 28.8327 139.287 30.0482C140.377 31.2273 140.921 32.7496 140.921 34.6151ZM137.972 34.7048C137.972 33.5543 137.72 32.5676 137.209 31.7447C136.613 30.7489 135.761 30.2523 134.657 30.2523C133.515 30.2523 132.647 30.7502 132.051 31.7447C131.54 32.5689 131.288 33.5712 131.288 34.7568C131.288 35.9073 131.54 36.894 132.051 37.7156C132.665 38.7114 133.524 39.208 134.632 39.208C135.717 39.208 136.569 38.701 137.184 37.6896C137.708 36.8511 137.972 35.854 137.972 34.7048Z" fill="#E5E5E5"/>
    <path d="M150.161 30.918C149.88 30.8673 149.58 30.8413 149.265 30.8413C148.265 30.8413 147.492 31.2092 146.948 31.9463C146.475 32.5963 146.237 33.4179 146.237 34.4098V40.9553H143.396L143.423 32.4091C143.423 30.9713 143.387 29.6622 143.316 28.4818H145.792L145.896 30.8686H145.975C146.275 30.0483 146.748 29.3879 147.396 28.8926C148.029 28.4467 148.713 28.2244 149.451 28.2244C149.713 28.2244 149.951 28.2426 150.161 28.2751V30.918Z" fill="#E5E5E5"/>
    <path d="M162.875 34.1276C162.875 34.6242 162.841 35.0428 162.771 35.3847H154.243C154.276 36.6171 154.688 37.5596 155.48 38.2096C156.199 38.7907 157.128 39.0819 158.269 39.0819C159.532 39.0819 160.684 38.8856 161.72 38.4917L162.165 40.4157C160.955 40.9305 159.525 41.1866 157.876 41.1866C155.892 41.1866 154.335 40.6172 153.201 39.4797C152.071 38.3422 151.504 36.8147 151.504 34.8985C151.504 33.0174 152.031 31.4509 153.085 30.2016C154.189 28.8678 155.681 28.2009 157.559 28.2009C159.403 28.2009 160.799 28.8678 161.747 30.2016C162.497 31.2611 162.875 32.5715 162.875 34.1276ZM160.164 33.4087C160.183 32.5871 159.997 31.8773 159.612 31.278C159.12 30.5071 158.364 30.1223 157.347 30.1223C156.417 30.1223 155.661 30.498 155.084 31.252C154.611 31.8513 154.329 32.5702 154.243 33.4074H160.164V33.4087Z" fill="#E5E5E5"/>
</svg>
