<svg xmlns="http://www.w3.org/2000/svg" viewBox="0 96 960 960"><path d="m532 942 36-349q-35-9-76-28.5T420 512l-13-13-97 97 92 98v250h-76V728l-80-75 7 122-130 165-61-47 112-141-26-146q-6-29-2.5-50t16.5-33l134-132q11-10 25-17t29-7q17 0 31.5 7t24.5 16l59 58q37 37 80 58t91 23h77q19 0 34 14.5t16 34.5l30 285q17 7 27.5 22t10.5 34q0 25-16.5 40.5T774 975q-25 0-41.5-15.5T716 919q0-15 6-27.5t18-19.5l-7-80H601l-15 150h-54Zm-17-566q-31 0-53.5-22.5T439 299q0-31 22.5-53.5T515 223q33 0 55 22.5t22 53.5q0 32-22 54.5T515 376Zm91 363h122l-16-157h-90l-16 157Z"/></svg>