<svg xmlns="http://www.w3.org/2000/svg" viewBox="0 96 960 960"><path d="M703.045 993Q639 993 594 956.5T529 871q-21.062-53.333-40.531-80.667Q469 763 418 720q-65-49-96-111.5T291 456q0-125.875 80.5-207.438Q452 167 577.912 167q122.913 0 206 82.562Q867 332.125 872 459h-92q-5-88-59.842-144t-141.5-56Q493 259 438 315.113 383 371.225 383 456q0 69 27 117.5t91.49 96.5q36.51 27 59.01 60.5t45.5 83.477Q623 857 646.5 879q23.5 22 56.5 22 28 0 49-22.5t27-60.5h92q-5 82-52.774 128.5Q770.451 993 703.045 993ZM214 788q-63-72-93.5-158T90 452q0-89 30-176t94-158l66 62q-54 58-76.5 129T181 452.007Q181 523 204.5 593.5T281 724l-67 64Zm364-240q-39 0-65.5-26.5T486 456q0-40 26.5-67t65.5-27q38 0 66 27t28 67q0 39-28 65.5T578 548Z"/></svg>