<svg viewBox="0 0 33 20" fill="none" xmlns="http://www.w3.org/2000/svg">
  <path d="M11.7096 2.13824H21.3354V17.8601H11.7096V2.13824Z" fill="#FF5F00"/>
  <path d="M12.701 10.0006C12.6998 8.48673 13.043 6.99241 13.7046 5.63075C14.3662 4.26908 15.3289 3.07575 16.5197 2.14105C15.0448 0.981899 13.2735 0.261088 11.4082 0.0610042C9.543 -0.13908 7.65911 0.189635 5.97187 1.00958C4.28462 1.82952 2.86209 3.10762 1.86686 4.69779C0.871638 6.28795 0.343864 8.12604 0.343864 10.002C0.343864 11.8779 0.871638 13.716 1.86686 15.3062C2.86209 16.8963 4.28462 18.1744 5.97187 18.9944C7.65911 19.8143 9.543 20.143 11.4082 19.9429C13.2735 19.7429 15.0448 19.022 16.5197 17.8629C15.3285 16.9279 14.3656 15.7341 13.704 14.3719C13.0424 13.0098 12.6994 11.5149 12.701 10.0006V10.0006Z" fill="#EB001B"/>
  <path d="M31.7417 16.1966V15.8744H31.8805V15.8078H31.5501V15.8744H31.6806V16.1966L31.7417 16.1966ZM32.3832 16.1966V15.8078H32.2832L32.1666 16.0855L32.0499 15.8078H31.95V16.1966H32.0222V15.9022L32.1305 16.155H32.2055L32.3138 15.9022V16.1966H32.3832Z" fill="#F79E1B"/>
  <path d="M32.697 10.0006C32.697 11.8767 32.1691 13.7149 31.1737 15.3051C30.1783 16.8953 28.7555 18.1734 27.0681 18.9932C25.3806 19.813 23.4965 20.1415 21.6312 19.9412C19.7658 19.7408 17.9945 19.0196 16.5197 17.8601C17.7101 16.9246 18.6725 15.7309 19.3342 14.3692C19.996 13.0074 20.3398 11.5132 20.3398 9.99918C20.3398 8.48517 19.996 6.99092 19.3342 5.62919C18.6725 4.26745 17.7101 3.07379 16.5197 2.13827C17.9945 0.978739 19.7658 0.25757 21.6312 0.0571947C23.4965 -0.143181 25.3806 0.185323 27.0681 1.00515C28.7556 1.82499 30.1783 3.10307 31.1737 4.6933C32.1691 6.28353 32.697 8.12174 32.697 9.99782V10.0006Z" fill="#F79E1B"/>
</svg>
