<svg viewBox="0 0 76 20" fill="none" xmlns="http://www.w3.org/2000/svg">
  <g clip-path="url(#clip0_1080_5466)">
    <path d="M15.6974 8.39025C15.6648 8.21738 15.4817 8.03993 15.3293 8.05727C15.2676 8.06441 15.1793 8.14906 15.1661 8.21178C15.1365 8.34996 15.343 8.59626 15.4624 8.56668C15.5501 8.54424 15.6194 8.45144 15.6974 8.39025ZM10.2061 8.58096C10.9149 8.49988 11.5783 8.30662 12.1897 7.95682C12.334 7.87421 12.4686 7.75846 12.5747 7.63047C12.6246 7.5703 12.6354 7.42497 12.5976 7.35205C12.3049 6.78451 11.4559 6.53261 10.9047 6.84978C10.3983 7.14094 10.022 7.5652 9.74002 8.07308C9.61917 8.2903 9.67577 8.43206 9.91084 8.51671C10.0067 8.55138 10.1118 8.56107 10.2061 8.58096ZM9.04704 7.8839C9.41265 7.43874 9.72982 6.98797 10.1133 6.60348C10.5783 6.13742 11.1418 5.82891 11.8378 5.87124C12.2677 5.89775 12.6435 6.05022 12.9632 6.33833C13.3059 6.64785 13.3992 7.02774 13.2753 7.4678C13.2473 7.56724 13.2202 7.66769 13.1998 7.76916C13.1565 7.98639 13.2014 8.0333 13.4262 8.01393C13.7378 7.98741 13.9973 7.71307 14.0101 7.33522C14.0254 6.87782 14.0213 6.41736 13.9902 5.96098C13.9015 4.64437 13.6781 3.34764 13.3788 2.06315C13.365 2.004 13.3635 1.927 13.3905 1.87652C13.5053 1.66133 13.6328 1.45226 13.7562 1.24167C13.8133 1.14427 13.8969 1.10756 13.9617 1.21566C14.2962 1.77198 14.622 2.33341 14.9759 2.93562C14.8642 2.95194 14.8051 2.96877 14.7454 2.96826C14.4491 2.96826 14.3278 3.10033 14.3609 3.39098C14.4073 3.80249 14.4685 4.21298 14.4945 4.62601C14.544 5.40874 14.5761 6.19249 14.6082 6.97624C14.6205 7.28729 14.6878 7.34746 14.9815 7.21896C15.2793 7.08842 15.5801 7.05375 15.8545 7.22202C16.0406 7.33675 16.2298 7.50146 16.3313 7.69064C16.6551 8.29591 16.4327 9.04499 15.88 9.33309C15.4537 9.55542 15.0106 9.4621 14.7102 9.08425C14.6597 9.02102 14.6154 8.95167 14.5756 8.8813C14.3171 8.42441 14.2115 8.39688 13.7113 8.58912C13.2845 8.75382 12.8556 8.92669 12.4125 9.03632C11.8037 9.18674 11.1846 9.30658 10.5635 9.39224C10.0133 9.46771 9.48914 9.33411 9.00369 9.01643C8.90834 9.09598 8.81451 9.17502 8.68601 9.28261C8.65083 9.12606 8.58505 8.99043 8.60238 8.86651C8.62176 8.7268 8.5774 8.66714 8.4749 8.60136C8.03943 8.3209 7.73705 8.30662 7.34135 8.6396C6.73607 9.14952 6.15782 9.69208 5.56529 10.2173C5.35521 10.4039 5.14512 10.5921 4.91922 10.7583C4.58625 11.0016 4.20126 11.0633 3.79893 11.0128C3.26606 10.946 2.88158 10.33 3.00651 9.72114C3.05648 9.47689 3.15286 9.24182 3.23139 9.00368C3.26147 8.91394 3.30124 8.82725 3.33949 8.7319C2.98713 8.67835 2.64039 8.6549 2.31098 8.56617C1.9933 8.47999 1.67358 8.36118 1.39108 8.19546C0.689939 7.78293 0.311068 7.17664 0.409483 6.33272C0.487501 5.66421 0.713905 5.0523 1.13408 4.52403C1.207 4.43326 1.34417 4.394 1.45176 4.33077C1.45125 4.44295 1.47624 4.56329 1.44564 4.66629C1.37068 4.91361 1.26411 5.15072 1.1815 5.39548C1.104 5.62597 1.01476 5.85696 0.976515 6.09509C0.833227 6.97573 1.44666 7.51522 2.14117 7.78854C2.66333 7.99404 3.20028 7.96089 3.73621 7.83341C4.51996 7.64729 5.23385 7.31992 5.81669 6.75238C5.92479 6.64734 5.97578 6.48416 6.05278 6.34801C5.90541 6.30518 5.76059 6.24807 5.61017 6.22308C5.37815 6.18433 5.13492 6.19504 4.90954 6.13538C4.34658 5.98699 4.13956 5.6382 4.24154 5.0676C4.44449 3.93252 5.32971 3.05953 6.46327 2.87698C6.7835 2.82497 6.97268 2.96775 6.96707 3.29257C6.9635 3.50469 6.93137 3.72243 6.87018 3.92487C6.84469 4.00901 6.71823 4.09212 6.62185 4.11864C6.50559 4.15076 6.38729 4.10538 6.36026 3.95037C6.33578 3.81065 6.23074 3.7928 6.12315 3.83053C5.56835 4.02379 5.14818 4.38176 4.88404 4.90545C4.78715 5.09718 4.87027 5.22976 5.10484 5.25525C5.38223 5.28534 5.66422 5.27922 5.94417 5.28891C5.98139 5.29044 6.01861 5.29299 6.05482 5.29758C6.82021 5.39599 7.12718 6.00229 6.74066 6.66875C6.64888 6.82785 6.53312 6.97828 6.40411 7.10882C5.63872 7.88237 4.75044 8.44634 3.6689 8.66714C3.55468 8.69059 3.47105 8.73546 3.47666 8.86447C3.48992 9.1434 3.47054 9.431 3.53275 9.69973C3.63065 10.1245 3.97995 10.3218 4.3833 10.1536C4.69588 10.0235 4.99418 9.82109 5.2471 9.59315C5.60303 9.2719 5.90031 8.8864 6.24298 8.54883C6.5214 8.2745 6.80848 7.99812 7.13024 7.77936C7.8166 7.31227 8.38261 7.29953 8.96596 7.83035C8.99808 7.85942 9.03837 7.87829 9.04704 7.8839Z" fill="#107614"/>
    <path d="M44.0873 1.24118C44.1158 1.43953 44.1495 1.63177 44.1709 1.82503C44.3851 3.76732 44.6212 5.70757 44.5834 7.66822C44.5799 7.84261 44.612 8.02414 44.6625 8.19191C44.8476 8.80075 45.5074 9.04042 46.0051 8.64064C46.2978 8.40557 46.5079 8.06749 46.7521 7.77377C46.7899 7.7289 46.8057 7.66363 46.848 7.6259C46.8878 7.5902 46.9546 7.554 46.9994 7.56369C47.0418 7.57337 47.0907 7.63813 47.1019 7.68709C47.1213 7.77224 47.1162 7.86301 47.1182 7.95174C47.129 8.48715 47.3997 8.79973 47.9321 8.89764C48.623 9.02461 49.2604 8.86245 49.8448 8.50602C50.2731 8.24494 50.6724 7.93542 51.0849 7.64782C51.1614 7.59428 51.2394 7.54176 51.3638 7.4566C51.3638 7.58 51.3735 7.65496 51.3623 7.72635C51.2838 8.22454 51.4878 8.58608 51.8891 8.65186C52.3806 8.73242 52.7738 8.4795 52.8263 7.97876C52.8615 7.6468 52.812 7.30108 52.7641 6.96657C52.5683 5.59029 52.3597 4.21605 52.1532 2.84182C52.1287 2.68119 52.1145 2.51088 52.0492 2.36657C51.8263 1.87144 52.2011 1.56141 52.3985 1.20293C52.4704 1.07239 52.5642 1.19477 52.6132 1.27483C52.7886 1.5665 52.9594 1.86073 53.1307 2.15495C53.2388 2.34005 53.3479 2.52516 53.4504 2.71383C53.4872 2.78063 53.5045 2.85864 53.5356 2.94584C53.4739 2.95808 53.4397 2.97134 53.4056 2.97134C53.0242 2.97032 52.9456 3.06465 52.9813 3.45117C53.1139 4.88762 53.2618 6.32305 53.3622 7.76204C53.4005 8.30766 53.1894 8.81197 52.7967 9.21124C52.4877 9.52484 52.09 9.58756 51.6846 9.48252C51.524 9.44071 51.3863 9.28518 51.2568 9.16178C51.1915 9.09957 51.1691 8.99299 51.1252 8.90733C51.0049 8.67072 50.9319 8.66715 50.7198 8.82217C50.3807 9.06897 50.0483 9.33923 49.6745 9.52076C49.3206 9.69261 48.9244 9.80173 48.5348 9.86853C47.8546 9.9853 47.2835 9.75074 46.8505 9.2041C46.7067 9.02155 46.6359 9.02257 46.5145 9.23929C46.3228 9.58195 46.0413 9.78082 45.6502 9.82009C44.9796 9.8874 44.5044 9.53555 44.3693 8.87061C44.3499 8.77628 44.3453 8.67939 44.3249 8.58557C44.2912 8.42392 44.2061 8.39231 44.0735 8.49174C44.021 8.53101 43.9751 8.58098 43.9312 8.63146C43.072 9.61408 41.9614 10.0276 40.6846 10.075C40.0069 10.1 39.394 9.93278 38.8662 9.49884C38.3741 9.09447 38.1498 8.57792 38.2879 7.94409C38.368 7.57796 38.4822 7.21745 38.6031 6.86152C38.6464 6.73404 38.7362 6.60809 38.8376 6.51886C38.8937 6.46991 39.0396 6.46124 39.1064 6.5005C39.2012 6.5571 39.2303 6.66826 39.1456 6.78759C39.0442 6.9324 38.9498 7.08538 38.8774 7.24601C38.6255 7.80539 38.7479 8.28114 39.2303 8.66511C39.6153 8.97158 40.0696 9.10212 40.5443 9.15413C41.9216 9.30354 43.045 8.82727 43.8966 7.73655C43.9914 7.61468 44.0541 7.42907 44.0501 7.27456C44.0062 5.5648 43.8634 3.86217 43.6028 2.17025C43.5865 2.06419 43.6141 1.93722 43.6605 1.83931C43.7558 1.63993 43.8777 1.4533 43.9914 1.26361C43.9985 1.25137 44.0307 1.25341 44.0873 1.24118Z" fill="#107614"/>
    <path d="M30.966 6.41075C30.9242 6.29449 30.9048 6.21494 30.8681 6.14406C30.8186 6.04718 30.7161 5.97273 30.6488 6.08848C30.531 6.29194 30.4453 6.51732 30.3704 6.74169C30.3556 6.78452 30.4387 6.88855 30.4994 6.91863C30.5484 6.94311 30.6646 6.92169 30.6937 6.88039C30.8008 6.7269 30.8839 6.5571 30.966 6.41075ZM31.199 9.06132C31.2974 9.01237 31.3953 8.96342 31.4932 8.91446C31.4336 8.81911 31.3953 8.68194 31.3092 8.63707C31.1312 8.54477 30.9318 8.47746 30.734 8.44483C30.5591 8.41627 30.4923 8.54477 30.5891 8.69775C30.7248 8.91191 30.9293 9.01594 31.199 9.06132ZM30.7691 4.5424C31.3316 4.97685 31.6319 6.41483 30.9262 7.58816C31.0878 7.64068 31.2531 7.68198 31.4086 7.74572C32.1133 8.03587 32.4162 8.90019 32.0542 9.57073C31.8859 9.88178 31.5549 10.0128 31.1322 9.93584C30.3893 9.79969 30.014 9.41215 29.8426 8.60443C29.7641 8.23525 29.6779 8.1812 29.3251 8.32703C28.6601 8.60137 27.962 8.73395 27.2522 8.77831C26.163 8.84562 25.2049 8.53865 24.4655 7.68759C24.3987 7.6106 24.3202 7.52085 24.2299 7.49433C24.1575 7.47241 24.0219 7.51014 23.9801 7.56878C23.9077 7.66975 23.9648 7.76255 24.0963 7.79315C24.1606 7.80793 24.2243 7.83037 24.285 7.85689C24.5705 7.98131 24.724 8.22658 24.619 8.51673C24.5053 8.83033 24.3625 9.15209 24.158 9.41215C23.358 10.4299 21.4519 11.3764 19.685 10.716C18.8523 10.405 18.4479 9.75073 18.2873 8.93741C18.144 8.21332 18.4653 7.59581 18.8814 7.02572C18.8987 7.00175 18.9191 6.97421 18.9441 6.96351C19.0017 6.93954 19.0629 6.92475 19.1226 6.90588C19.1277 6.96707 19.1511 7.03387 19.1338 7.08742C19.0802 7.24855 19.0053 7.40204 18.9487 7.56215C18.8084 7.95887 18.7365 8.3663 18.8186 8.78443C18.9823 9.61611 19.5968 10.1393 20.5325 10.1735C21.6762 10.2153 22.7287 9.91085 23.6389 9.18931C23.748 9.10262 23.8485 9.00064 23.9382 8.89356C24.0673 8.74007 24.0377 8.63707 23.8388 8.59525C23.6593 8.55752 23.4722 8.54987 23.2881 8.54528C22.9867 8.53712 22.6854 8.54273 22.3269 8.54273C22.3845 8.22964 22.4131 7.95938 22.4926 7.70442C22.5181 7.62181 22.6691 7.55399 22.7756 7.52493C23.5135 7.32657 24.0397 6.58412 23.9367 5.82638C23.8383 5.10076 23.6537 4.38331 23.6083 3.65616C23.5599 2.89281 23.6282 2.12181 23.6568 1.35386C23.6588 1.28655 23.744 1.2223 23.7904 1.15652C23.8291 1.22842 23.8924 1.29726 23.9026 1.37324C24.0576 2.53892 24.1998 3.70664 24.3569 4.87232C24.4171 5.31901 24.4941 5.76417 24.5864 6.20576C24.7699 7.08487 25.4073 7.66312 26.3374 7.83292C26.9651 7.94765 27.577 7.83139 28.1879 7.72023C28.5505 7.65445 28.911 7.5647 29.2634 7.4566C29.7422 7.30974 29.9997 6.98084 30.1134 6.47857C30.2429 5.9044 30.4576 5.3491 30.6396 4.78767C30.6661 4.7066 30.7202 4.63368 30.7691 4.5424Z" fill="#107614"/>
    <path d="M34.3875 9.14801C34.4462 9.13985 34.5431 9.13526 34.6354 9.11129C35.0464 9.00268 35.1805 8.5208 34.8873 8.21791C34.6853 8.00935 34.6068 7.99508 34.3983 8.2021C34.2596 8.33978 34.1372 8.505 34.0479 8.67837C33.8853 8.99605 33.9924 9.1475 34.3875 9.14801ZM29.6254 2.06163C30.2424 2.45937 30.814 2.82448 31.3816 3.1957C31.4759 3.2574 31.5427 3.34817 31.3851 3.42465C31.1455 3.54041 31.1348 3.58273 31.3275 3.77038C31.9374 4.36444 32.5498 4.95646 33.1612 5.54898C33.5921 5.9661 34.023 6.38321 34.4543 6.79982C34.5278 6.87121 34.6048 6.93903 34.695 7.02317C35.0199 6.71313 35.334 6.41279 35.6486 6.11245C35.7077 6.05585 35.7603 5.99007 35.8271 5.94621C36.2442 5.67239 36.3487 5.28077 36.2732 4.81317C36.1381 3.97435 36.0116 3.134 35.8735 2.29569C35.8322 2.04787 36.0275 1.54712 36.2707 1.37477C36.3054 1.44004 36.3441 1.50021 36.3711 1.56497C36.5899 2.0907 36.8087 2.61643 37.0208 3.14471C37.0509 3.22068 37.0442 3.31145 37.0544 3.39559C36.9774 3.37468 36.8964 3.36346 36.825 3.33134C36.6919 3.27066 36.5899 3.33338 36.6093 3.49349C36.6664 3.97027 36.7362 4.44501 36.8087 4.97838C36.9433 4.86008 37.056 4.78155 37.1432 4.6811C37.7607 3.97231 38.3792 3.26454 38.9845 2.54504C39.2991 2.17178 39.5872 1.77608 39.8881 1.39058C39.9197 1.34978 39.9452 1.29879 39.986 1.27126C40.0436 1.23301 40.1129 1.21262 40.1772 1.18457C40.195 1.25035 40.2414 1.32429 40.2256 1.38089C40.1746 1.56497 40.1186 1.7516 40.0329 1.92141C39.6046 2.76787 39.0034 3.49298 38.3823 4.19973C37.9427 4.69997 37.4726 5.17317 37.0279 5.66933C36.9494 5.75652 36.8933 5.89624 36.8908 6.01301C36.8688 7.09404 36.8775 8.17559 36.8418 9.25509C36.826 9.72167 36.6623 10.1627 36.3579 10.5528V6.46837C36.337 6.46072 36.3156 6.45358 36.2941 6.44644C35.9408 6.80135 35.5854 7.15371 35.2396 7.51575C35.2131 7.54328 35.2442 7.64935 35.2753 7.70391C35.5644 8.20414 35.6338 8.73344 35.4757 9.28671C35.2952 9.91952 34.6665 10.3116 34.0163 10.2107C33.7216 10.1648 33.5559 10.0062 33.485 9.69158C33.3284 8.9986 33.4794 8.38618 33.9735 7.86658C34.0092 7.82884 34.0434 7.78856 34.0836 7.75694C34.1244 7.72533 34.1724 7.70289 34.2167 7.67637C34.2254 7.64323 34.2346 7.61008 34.2438 7.57643C34.1051 7.46629 33.9546 7.36838 33.8302 7.24396C32.4957 5.90746 31.1638 4.5679 29.8375 3.22323C29.7636 3.14879 29.7182 3.0259 29.7029 2.91881C29.6652 2.65671 29.6529 2.39053 29.6254 2.06163Z" fill="#107614"/>
    <path d="M17.5887 3.26862C17.5087 3.27372 17.4465 3.28035 17.3837 3.28137C17.1043 3.28493 16.9855 3.41751 17.0288 3.70868C17.0839 4.08194 17.1578 4.45214 17.218 4.82439C17.4872 6.49795 17.5056 8.16896 17.1487 9.83334C17.1063 10.0322 17.0196 10.226 16.9253 10.4085C16.8835 10.4906 16.7734 10.537 16.6938 10.6003C16.6729 10.5875 16.6515 10.5748 16.6301 10.562C16.6301 10.4779 16.6285 10.3932 16.6306 10.3091C16.6602 9.16228 16.7361 8.01496 16.7096 6.86968C16.6755 5.37153 16.3802 3.90245 16.06 2.44102C16.0365 2.33291 16.063 2.19676 16.1105 2.09376C16.1966 1.90662 16.3154 1.73426 16.4215 1.55681C16.4883 1.44463 16.5704 1.42831 16.6403 1.54661C16.9513 2.0754 17.2583 2.60725 17.5648 3.13961C17.5811 3.16765 17.578 3.20743 17.5887 3.26862Z" fill="#107614"/>
    <path d="M55.9159 2.87138C55.3642 2.92595 55.3208 2.98561 55.4192 3.52816C55.6171 4.62092 55.7838 5.71929 55.767 6.83194C55.7532 7.75541 55.713 8.68193 55.4626 9.58042C55.4177 9.74206 55.3438 9.89963 55.2581 10.0439C55.2204 10.1077 55.1194 10.1337 55.0475 10.177C55.0246 10.1 54.9807 10.023 54.9828 9.94705C55.0093 8.78647 55.0898 7.62436 55.0613 6.46531C55.0251 4.97634 54.7298 3.51592 54.4157 2.06214C54.3907 1.94741 54.4198 1.80361 54.4688 1.69398C54.5529 1.50582 54.6722 1.33346 54.7783 1.15601C54.8374 1.05709 54.9165 1.03006 54.9817 1.14122C55.2964 1.67664 55.6059 2.21461 55.9139 2.75359C55.9297 2.78113 55.9159 2.82447 55.9159 2.87138Z" fill="#107614"/>
    <path d="M23.0765 15.7061C23.3779 15.6908 23.6507 15.6872 23.9209 15.6592C24.1325 15.6367 24.2208 15.4766 24.2264 15.2834C24.232 15.0962 24.1448 14.9274 23.9515 14.9091C23.6624 14.881 23.3692 14.9014 23.0765 14.9014V15.7061ZM23.0744 17.1629C23.387 17.1629 23.6751 17.1736 23.9617 17.1599C24.1845 17.1492 24.3151 16.9916 24.3289 16.7616C24.3442 16.5067 24.2294 16.3022 24.004 16.2813C23.6991 16.2537 23.3906 16.2747 23.0744 16.2747V17.1629ZM24.4084 15.8932C24.9637 16.319 25.0861 16.8126 24.7919 17.3215C24.6527 17.5622 24.4436 17.7126 24.1657 17.7223C23.6552 17.7402 23.1443 17.7376 22.6344 17.7448C22.5329 17.7463 22.4646 17.7269 22.4656 17.6004C22.4702 16.5271 22.4712 15.4542 22.4743 14.3813C22.4743 14.3681 22.4865 14.3553 22.4952 14.339C23.0245 14.339 23.5558 14.3247 24.0856 14.3441C24.4135 14.3563 24.6323 14.5613 24.7409 14.8637C24.8597 15.1946 24.8092 15.5062 24.5731 15.7754C24.5313 15.8234 24.4676 15.8519 24.4084 15.8932Z" fill="#107614"/>
    <path d="M0.961215 15.6413V17.7295H0.423248V14.3222C0.583363 14.3222 0.744498 14.3084 0.901554 14.3293C0.962235 14.3375 1.02954 14.4155 1.06371 14.4787C1.38547 15.0774 1.70111 15.6796 2.0193 16.2803C2.05857 16.3552 2.10344 16.4276 2.1942 16.4924V14.3334H2.73829V17.7422C2.56288 17.7422 2.39409 17.756 2.22939 17.7346C2.16871 17.7269 2.1014 17.6453 2.06672 17.5816C1.75312 17.0033 1.44717 16.421 1.13816 15.8402C1.10042 15.7693 1.06065 15.7 1.02139 15.6301C1.0015 15.6337 0.981612 15.6378 0.961215 15.6413Z" fill="#107614"/>
    <path d="M13.4788 15.6281V17.3108C13.4788 17.7896 13.4788 17.7896 12.9597 17.7244V14.3216C13.0882 14.3216 13.2126 14.3308 13.335 14.3196C13.465 14.3074 13.5338 14.3599 13.5925 14.4726C13.927 15.1156 14.2676 15.755 14.6072 16.395C14.6276 16.4337 14.6516 16.471 14.7056 16.5638V14.34H15.263C15.2676 14.4068 15.2757 14.4721 15.2762 14.5368C15.2767 15.5286 15.2716 16.5209 15.2808 17.5127C15.2823 17.7019 15.2186 17.7402 15.0412 17.7519C14.7806 17.7697 14.6302 17.6973 14.5103 17.4464C14.2426 16.8866 13.9336 16.3465 13.6409 15.7989C13.6067 15.7357 13.568 15.6745 13.5318 15.6128C13.5139 15.6179 13.4966 15.623 13.4788 15.6281Z" fill="#107614"/>
    <path d="M47.2411 16.4822H46.5517V15.9305H47.8153C47.8153 16.2451 47.7862 16.5638 47.8235 16.8748C47.8688 17.2542 47.6832 17.4449 47.3773 17.5928C46.977 17.7866 46.565 17.8692 46.13 17.7483C45.5028 17.5739 45.2167 17.1017 45.0995 16.5072C44.9995 16.0029 45.0418 15.5067 45.2637 15.0335C45.6537 14.2028 46.5736 14.1238 47.1759 14.4043C47.5206 14.5649 47.698 14.8652 47.7516 15.2563C47.6628 15.2813 47.5848 15.2987 47.5099 15.3252C47.3064 15.3981 47.1855 15.3685 47.0627 15.1472C46.8097 14.6924 46.0892 14.7413 45.8348 15.2344C45.5604 15.7658 45.5676 16.3328 45.8648 16.8514C46.1693 17.3827 46.8057 17.2797 47.1488 16.9564C47.2355 16.8748 47.2085 16.6719 47.2411 16.4822Z" fill="#107614"/>
    <path d="M30.2154 14.3334H30.7539C30.76 14.4078 30.7702 14.4721 30.7702 14.5363C30.7712 15.5281 30.7666 16.5204 30.7748 17.5122C30.7763 17.6989 30.7131 17.7386 30.5346 17.7524C30.2684 17.7733 30.1236 17.6825 30.0063 17.4398C29.7422 16.8947 29.4449 16.3654 29.1604 15.83C29.1201 15.7545 29.0752 15.6811 28.988 15.6174V17.6871C28.9513 17.7142 28.9401 17.7289 28.9278 17.7305C28.4424 17.7927 28.4424 17.7927 28.4424 17.3174C28.4424 16.4144 28.4424 15.5113 28.4424 14.6082V14.3222C28.6234 14.3222 28.7784 14.3084 28.9288 14.3293C28.989 14.338 29.0568 14.414 29.09 14.4757C29.4117 15.0748 29.7274 15.677 30.0451 16.2782C30.0859 16.3557 30.1292 16.4317 30.2154 16.5021" fill="#107614"/>
    <path d="M11.8766 16.0329C11.8276 15.7933 11.8083 15.5531 11.7277 15.3354C11.614 15.0264 11.3733 14.8453 11.0306 14.8453C10.689 14.8459 10.4478 15.0238 10.329 15.3323C10.149 15.7979 10.149 16.2772 10.3397 16.7402C10.4651 17.0441 10.7053 17.2221 11.049 17.2149C11.384 17.2083 11.6104 17.0202 11.7221 16.7234C11.8042 16.5062 11.8266 16.2665 11.8766 16.0329ZM12.489 16.1033C12.4237 16.3751 12.3824 16.7015 12.2662 16.9987C12.0607 17.527 11.565 17.8268 11.0041 17.807C10.4157 17.7861 9.98121 17.5112 9.76296 16.9605C9.53452 16.3838 9.53707 15.7851 9.73033 15.1987C9.94551 14.5465 10.3983 14.2579 11.126 14.2717C11.692 14.2824 12.1764 14.6628 12.3452 15.2625C12.4166 15.5159 12.4365 15.7841 12.489 16.1033Z" fill="#107614"/>
    <path d="M37.6975 16.0217C37.6414 15.7795 37.6113 15.5353 37.5271 15.3104C37.417 15.0162 37.1829 14.8525 36.8602 14.8448C36.5379 14.8372 36.2926 14.9912 36.1682 15.2767C35.952 15.7729 35.9459 16.2864 36.1764 16.7815C36.3115 17.0716 36.5522 17.2323 36.8892 17.2109C37.2059 17.191 37.4211 17.0171 37.5271 16.7366C37.6118 16.5123 37.6414 16.267 37.6975 16.0217ZM35.4018 16.0136C35.4166 15.6199 35.4875 15.2512 35.6777 14.9009C36.1361 14.059 37.5118 14.0376 37.9794 14.8769C38.3879 15.6107 38.3874 16.3853 38.0131 17.1308C37.7439 17.6662 37.2237 17.8732 36.5828 17.7784C36.0433 17.6989 35.618 17.2873 35.488 16.6933C35.4395 16.471 35.4293 16.2405 35.4018 16.0136Z" fill="#107614"/>
    <path d="M34.0689 17.7437C33.8205 17.7437 33.6206 17.7565 33.4233 17.7371C33.3555 17.7305 33.2703 17.6576 33.2361 17.5923C33.025 17.1941 32.8272 16.7892 32.6237 16.3868C32.5875 16.316 32.5462 16.2476 32.5116 16.1854C31.8741 16.5429 32.0067 17.1543 32.0083 17.7427C31.8349 17.7427 31.6896 17.7448 31.5442 17.7422C31.3902 17.7402 31.4229 17.6209 31.4224 17.5316C31.4203 16.6734 31.4213 15.8152 31.4208 14.9565V14.3324H32.0011V15.7479C32.0302 15.7683 32.0587 15.7887 32.0873 15.8086C32.1159 15.7515 32.1357 15.6877 32.174 15.6388C32.4743 15.2538 32.7828 14.8749 33.0776 14.4859C33.1724 14.3594 33.2744 14.3064 33.4309 14.3186C33.6043 14.3314 33.7797 14.3212 34.0066 14.3212C33.6976 14.6934 33.4223 15.0274 33.1444 15.3594C32.9006 15.6495 32.8991 15.649 33.0822 15.9769C33.4019 16.55 33.7216 17.1227 34.0689 17.7437Z" fill="#107614"/>
    <path d="M44.5732 14.3385V14.8882H43.6008C42.8905 14.8882 42.8905 14.8882 43.0108 15.651H44.4672V16.2216H43.5906C42.9843 16.2216 42.9843 16.2216 42.9838 16.8386C42.9838 16.883 42.9879 16.9284 42.9828 16.9722C42.9639 17.1242 43.0226 17.1813 43.1811 17.1772C43.5733 17.168 43.9659 17.1741 44.3586 17.1741H44.6375C44.6375 17.3388 44.6467 17.4847 44.6314 17.6275C44.6268 17.6698 44.5523 17.7376 44.5095 17.7381C43.8216 17.7453 43.1337 17.7427 42.4295 17.7427V14.3385" fill="#107614"/>
    <path d="M27.0151 16.3904C26.881 15.9707 26.755 15.5761 26.6291 15.1809C26.6143 15.1814 26.5995 15.1819 26.5847 15.1824C26.4608 15.5786 26.3374 15.9753 26.2079 16.3904H27.0151ZM26.9294 14.3217C27.32 15.4562 27.7066 16.5786 28.1068 17.7412C27.9039 17.7412 27.7305 17.7478 27.5587 17.7366C27.5148 17.7335 27.4689 17.6785 27.4343 17.6387C27.4123 17.6122 27.4072 17.5704 27.3955 17.5357C27.2038 16.9641 27.2038 16.9641 26.5878 16.9641C26.0254 16.9641 26.0177 16.962 25.8673 17.4862C25.8117 17.6795 25.7316 17.782 25.517 17.7478C25.4099 17.731 25.2977 17.7448 25.1554 17.7448C25.2605 17.4301 25.3543 17.1446 25.4497 16.8606C25.7056 16.0977 25.9693 15.3369 26.2145 14.5705C26.2762 14.3767 26.3609 14.286 26.5694 14.3186C26.6775 14.3354 26.7902 14.3217 26.9294 14.3217Z" fill="#107614"/>
    <path d="M4.14006 16.3853H4.94573C4.81366 15.9748 4.68975 15.5914 4.56635 15.2074C4.54595 15.2089 4.52607 15.2099 4.50567 15.211C4.38533 15.598 4.26499 15.9845 4.14006 16.3853ZM6.02166 17.7427C5.83197 17.7427 5.66268 17.7529 5.49594 17.7366C5.4429 17.731 5.3761 17.6611 5.35316 17.6055C5.28483 17.4424 5.24658 17.2664 5.17367 17.1058C5.14511 17.0441 5.05638 16.9737 4.99213 16.9707C4.69638 16.9564 4.3991 16.9549 4.10385 16.9712C4.03552 16.9753 3.94374 17.0538 3.91161 17.1216C3.84583 17.2603 3.80606 17.4133 3.76883 17.5637C3.73518 17.6999 3.66736 17.7611 3.52101 17.7473C3.39047 17.7351 3.25738 17.7447 3.09421 17.7447C3.14214 17.5846 3.17834 17.4521 3.22169 17.322C3.53427 16.3899 3.85144 15.4593 4.1579 14.5251C4.20635 14.3772 4.26397 14.3125 4.43122 14.3171C4.85191 14.3283 4.85242 14.3186 4.99009 14.7158C5.3093 15.6378 5.62801 16.5602 5.9462 17.4821C5.97271 17.5581 5.99158 17.6366 6.02166 17.7427Z" fill="#107614"/>
    <path d="M17.0849 15.188C17.0676 15.1916 17.0497 15.1957 17.0319 15.1992C16.91 15.5908 16.7881 15.9825 16.6601 16.394H17.4689C17.3368 15.9784 17.2109 15.5832 17.0849 15.188ZM18.5346 17.7085C18.501 17.7264 18.4948 17.732 18.4877 17.733C17.9324 17.7968 17.9166 17.8014 17.7697 17.269C17.7014 17.0217 17.5923 16.9324 17.3404 16.9595C17.1206 16.9829 16.8957 16.9753 16.6744 16.9605C16.5164 16.9503 16.4465 17.0125 16.4133 17.1589C16.3828 17.2955 16.3256 17.4261 16.2956 17.5627C16.2645 17.7055 16.1875 17.7575 16.0452 17.7468C15.9141 17.7371 15.781 17.7448 15.6133 17.7448C15.6612 17.5943 15.6995 17.4704 15.7403 17.348C16.0523 16.4164 16.37 15.4868 16.6729 14.5521C16.73 14.3747 16.8065 14.3094 16.9962 14.3171C17.3786 14.3324 17.3812 14.3206 17.5076 14.6857C17.8314 15.6214 18.1537 16.5577 18.4755 17.4944C18.4994 17.5627 18.5142 17.6341 18.5346 17.7085Z" fill="#107614"/>
    <path d="M51.6963 15.3813C51.6963 15.8891 51.6963 15.8902 52.2057 15.8708C52.2792 15.8677 52.3664 15.8733 52.4219 15.8366C52.5326 15.7637 52.6672 15.6837 52.7192 15.5725C52.8656 15.2584 52.681 14.9585 52.3363 14.9045C51.7305 14.8086 51.6968 14.8341 51.6963 15.3813ZM51.6968 17.7335H51.1425V14.3507C51.6525 14.3507 52.1537 14.342 52.654 14.3548C52.9222 14.3614 53.1149 14.5292 53.2271 14.7566C53.4357 15.1798 53.4357 15.6133 53.1991 16.0309C53.042 16.3073 52.7794 16.4169 52.4755 16.4348C52.2838 16.446 52.0905 16.4501 51.8988 16.4414C51.7458 16.4343 51.6892 16.4847 51.6938 16.6423C51.7035 16.9962 51.6968 17.3511 51.6968 17.7335Z" fill="#107614"/>
    <path d="M51.2114 1.24628C51.0768 1.49308 50.9743 1.70419 50.8483 1.9C50.8065 1.96476 50.7086 2.00198 50.629 2.03309C49.008 2.66794 47.4446 3.41752 45.9791 4.3624C45.8047 4.47408 45.643 4.60666 45.4641 4.70864C45.3937 4.74892 45.2626 4.77034 45.2101 4.73159C45.155 4.69028 45.126 4.5577 45.1469 4.48173C45.2162 4.22932 45.3407 4.01668 45.5813 3.86676C47.2314 2.83876 48.9652 1.98821 50.8106 1.36917C50.9268 1.33041 51.0451 1.29727 51.2114 1.24628Z" fill="#107614"/>
    <path d="M39.8177 7.41426C39.9911 7.42752 40.1655 7.43364 40.3373 7.45455C40.7814 7.50809 41.2103 7.45914 41.6091 7.25364C41.7019 7.20571 41.762 7.09505 41.8375 7.01347C41.7483 6.95737 41.6657 6.87375 41.5688 6.85029C40.9691 6.70547 40.9028 6.62287 40.9451 5.99974C40.9829 5.4424 41.2093 4.97582 41.6254 4.60256C41.6799 4.55361 41.7401 4.50873 41.8038 4.47253C42.1404 4.28182 42.2725 4.35627 42.2725 4.73412C42.2725 5.1905 42.2572 5.21242 41.8151 5.35571C41.6407 5.41231 41.4902 5.50053 41.5101 5.70756C41.5315 5.92427 41.708 5.98139 41.8931 6.00586C41.9589 6.01453 42.0262 6.00892 42.093 6.0079C42.4076 6.00331 42.5499 6.13079 42.582 6.44592C42.6625 7.24701 42.1154 7.88339 41.246 7.99455C40.8289 8.0481 40.4332 7.9864 40.0818 7.74214C39.9758 7.6682 39.885 7.57183 39.7876 7.48616C39.7973 7.4622 39.8075 7.43823 39.8177 7.41426Z" fill="#107614"/>
    <path d="M39.3307 16.2777V17.7284H38.7525V14.338H40.7381V14.8836H39.3475V15.7086C39.6887 15.7086 40.0196 15.7204 40.3495 15.7041C40.5545 15.6934 40.5897 15.7882 40.5703 15.9549C40.554 16.0992 40.6468 16.2971 40.3582 16.2818C40.0278 16.2645 39.6953 16.2777 39.3307 16.2777Z" fill="#107614"/>
    <path d="M49.368 15.6587C49.5633 15.2721 49.7566 14.9162 49.9233 14.5481C50.0069 14.3645 50.1166 14.2931 50.3134 14.3186C50.4343 14.3344 50.5592 14.3217 50.7193 14.3217C50.5062 14.7158 50.3369 15.0957 50.1079 15.4348C49.7194 16.0115 49.5546 16.6296 49.6383 17.3164C49.6403 17.3312 49.6388 17.3465 49.6388 17.3608C49.6388 17.7682 49.6388 17.7626 49.2227 17.7473C49.0855 17.7422 49.0442 17.6917 49.0468 17.5612C49.0534 17.2139 49.0585 16.8657 49.0447 16.5184C49.0396 16.3848 49.006 16.2405 48.9448 16.1222C48.6689 15.5908 48.3777 15.0682 48.0932 14.5414C48.059 14.4787 48.0305 14.4129 47.9861 14.3222C48.1977 14.3222 48.3813 14.3104 48.5623 14.3283C48.6235 14.3344 48.6995 14.4012 48.7316 14.4604C48.9111 14.7918 49.0784 15.1294 49.2518 15.4644C49.2813 15.5215 49.318 15.5761 49.368 15.6587Z" fill="#107614"/>
    <path d="M21.4748 2.20847C21.3652 2.10189 21.2816 1.97543 21.2382 1.98818C21.1551 2.01215 21.0506 2.10801 21.0378 2.18756C21.0261 2.26099 21.123 2.35176 21.1724 2.43487C21.2581 2.37062 21.3438 2.30688 21.4748 2.20847ZM18.1501 5.3353C19.2664 4.78102 20.3025 4.19053 21.0327 3.18038C20.942 3.08451 20.8522 2.99885 20.7732 2.90502C20.3397 2.39204 20.5376 1.68835 21.1735 1.47367C21.4437 1.3824 21.7405 1.49713 21.7578 1.77096C21.7859 2.20184 21.8991 2.61946 21.9088 3.05035C21.9098 3.10032 21.8945 3.15233 21.8807 3.20179C21.7889 3.52865 21.714 3.55925 21.4228 3.37517C21.383 3.42055 21.3402 3.46746 21.2999 3.51641C20.6217 4.3481 19.7783 4.95337 18.7814 5.3455C18.4622 5.47094 18.3781 5.47043 18.1501 5.3353Z" fill="#107614"/>
    <path d="M41.4836 1.98105C41.5831 2.08966 41.6498 2.16258 41.7172 2.23601C41.787 2.15901 41.9023 2.08762 41.9125 2.00348C41.9206 1.93464 41.8038 1.85102 41.7421 1.77351C41.6697 1.83164 41.5973 1.88977 41.4836 1.98105ZM38.7178 5.11859C38.7938 5.06964 38.8652 5.01253 38.9457 4.97377C39.8111 4.55411 40.6162 4.05031 41.2664 3.32826C41.3454 3.24055 41.4163 3.1452 41.4892 3.05188C41.5112 3.02333 41.527 2.99018 41.5494 2.95296C41.4561 2.85301 41.3597 2.76174 41.2766 2.65924C40.8702 2.15646 41.0772 1.45991 41.6906 1.25543C41.9844 1.15803 42.2485 1.30744 42.3097 1.61237C42.328 1.70569 42.3316 1.80461 42.3245 1.89946C42.3117 2.0866 42.2816 2.25232 42.4193 2.43488C42.5652 2.62865 42.4056 3.1248 42.1904 3.30837C42.1139 3.26044 42.0343 3.20996 41.9431 3.15285C41.5382 3.68622 41.0701 4.15433 40.502 4.49139C40.0349 4.76828 39.5276 4.97683 39.0324 5.20273C38.9519 5.23944 38.8397 5.20783 38.7423 5.20783C38.7341 5.17774 38.726 5.14817 38.7178 5.11859Z" fill="#107614"/>
    <path d="M7.24394 17.7335H6.67232V17.4658C6.67232 16.6811 6.66824 15.8968 6.6764 15.1125C6.67793 14.9407 6.63102 14.8724 6.45153 14.8851C6.2394 14.8994 6.02625 14.8882 5.80138 14.8882V14.3334H8.10928V14.8882C7.90072 14.8882 7.68146 14.8989 7.46372 14.8846C7.28219 14.8724 7.23884 14.9443 7.24037 15.1141C7.24802 15.8983 7.24394 16.6826 7.24394 17.4673" fill="#107614"/>
    <path d="M53.6707 14.8882V14.339H55.9797V14.8836H55.1255V17.7284C54.9899 17.7351 54.8818 17.7335 54.7747 17.7463C54.5942 17.7682 54.5305 17.7024 54.5325 17.5138C54.5422 16.7667 54.5381 16.0192 54.5361 15.2721C54.535 14.8244 54.5733 14.8948 54.1628 14.8887C54.0078 14.8861 53.8528 14.8882 53.6707 14.8882Z" fill="#107614"/>
    <path d="M18.914 17.7284V14.3533C19.0675 14.3533 19.2225 14.3349 19.3683 14.3635C19.4178 14.3732 19.4744 14.5017 19.4754 14.5766C19.4836 15.3094 19.4805 16.0426 19.4805 16.7754V17.1706H20.9598V17.7284" fill="#107614"/>
    <path d="M33.7573 5.293C33.5844 5.02631 33.6665 4.78868 33.7537 4.54443C33.6298 4.45979 33.5059 4.38279 33.3907 4.29457C33.1969 4.14516 33.1245 3.94375 33.1719 3.7051C33.2448 3.33745 33.4401 3.04832 33.7639 2.85965C34.0403 2.69903 34.4222 2.77195 34.6374 3.00855C34.7557 3.13807 34.7731 3.26963 34.5961 3.34663C34.4105 3.42771 34.207 3.4685 34.0189 3.54448C33.9307 3.58017 33.7986 3.65207 33.7935 3.71683C33.7818 3.86216 33.9184 3.91774 34.0428 3.88612C34.2417 3.83564 34.4329 3.7566 34.6262 3.68624C34.7486 3.64187 34.8689 3.5919 34.9954 3.54295C35.0698 3.97995 34.9245 4.26551 34.5721 4.42205C34.2631 4.55922 34.0342 4.78257 33.873 5.07781C33.8389 5.14104 33.8047 5.20478 33.7573 5.293Z" fill="#107614"/>
    <path d="M8.55292 14.3324H9.13831V17.7101C9.11485 17.7208 9.09598 17.7356 9.07559 17.7371C8.55292 17.7866 8.55292 17.7861 8.55292 17.267V14.6026" fill="#107614"/>
    <path d="M3.07127 1.60931C2.97693 1.52823 2.91013 1.42982 2.86016 1.43798C2.79948 1.44716 2.71534 1.54455 2.71126 1.60829C2.70667 1.67305 2.78775 1.74291 2.83109 1.81073C2.8984 1.75413 2.96571 1.69753 3.07127 1.60931ZM3.1809 2.62609C3.10186 2.58275 3.04577 2.55215 2.98713 2.52003C2.35687 3.27063 1.63329 3.85449 0.680246 4.07886C0.659339 4.04928 0.638942 4.0192 0.618546 3.98911C0.681266 3.94424 0.739397 3.88917 0.807726 3.85551C1.45584 3.53375 2.04836 3.13907 2.53279 2.59142C2.66639 2.44099 2.69851 2.3436 2.53432 2.17787C2.22327 1.86478 2.26967 1.46143 2.61387 1.1978C2.74747 1.0948 2.89483 1.01882 3.06413 1.10143C3.2426 1.18863 3.2839 1.36455 3.26708 1.53639C3.25127 1.7011 3.26606 1.83877 3.32878 1.99991C3.40934 2.20796 3.35376 2.43385 3.1809 2.62609Z" fill="#107614"/>
    <path d="M3.75916 2.68118C3.85604 2.71535 3.94885 2.71841 3.98709 2.76583C4.20483 3.03609 4.36188 3.3349 4.34964 3.69644C4.33996 3.97995 4.25888 4.07429 3.97536 4.0748C3.81066 4.07531 3.69949 4.11202 3.61638 4.26449C3.5149 4.45112 3.32572 4.48171 3.1345 4.46846C2.94991 4.4552 2.83824 4.33027 2.78419 4.16811C2.70464 3.93049 2.64549 3.68573 2.57665 3.44453C2.53738 3.30533 2.58685 3.19569 2.72198 3.1702C2.88566 3.13909 2.90198 3.27269 2.92186 3.39711C2.94634 3.54907 2.9647 3.70816 3.02793 3.84482C3.06005 3.91417 3.18549 3.94069 3.26861 3.98658C3.31297 3.89734 3.40017 3.80403 3.39201 3.71938C3.37569 3.5455 3.3038 3.37773 3.26402 3.20538C3.23955 3.10187 3.19161 2.97796 3.35632 2.93614C3.51694 2.89535 3.55876 2.99733 3.59037 3.12583C3.62709 3.27626 3.65921 3.4323 3.7306 3.56641C3.77343 3.64646 3.88613 3.68981 3.96771 3.74998C3.99678 3.65258 4.0697 3.54295 4.04675 3.46034C3.98148 3.22068 3.87746 2.99121 3.75916 2.68118Z" fill="#107614"/>
    <path d="M22.1168 4.1987C22.1908 4.21247 22.279 4.20125 22.3101 4.23847C22.5569 4.53474 22.7236 4.86415 22.6966 5.26749C22.6803 5.51022 22.5237 5.58365 22.3213 5.57906C22.1556 5.57447 22.0459 5.62138 21.9618 5.7713C21.8583 5.95589 21.6701 5.98291 21.4784 5.96762C21.2923 5.95283 21.1857 5.82739 21.1322 5.66625C21.0526 5.42863 20.9741 5.18795 20.9328 4.94216C20.919 4.86109 21.0042 4.70556 21.0771 4.68058C21.2173 4.63264 21.2433 4.76573 21.2627 4.88454C21.2892 5.04313 21.3142 5.20834 21.3805 5.35163C21.4121 5.41843 21.5523 5.48778 21.6191 5.46891C21.6798 5.4526 21.7487 5.31441 21.742 5.23588C21.7283 5.06965 21.6701 4.90647 21.6242 4.74381C21.5901 4.62295 21.5187 4.49394 21.7028 4.43479C21.8894 4.37513 21.9021 4.52046 21.9389 4.64182C21.9873 4.80347 22.0312 4.96919 22.1051 5.11962C22.1357 5.18183 22.2377 5.20987 22.307 5.25322C22.3422 5.17367 22.4218 5.08137 22.4034 5.0161C22.3305 4.75604 22.2275 4.50465 22.1168 4.1987Z" fill="#107614"/>
    <path d="M25.9907 9.50647C25.9963 9.77673 25.9224 9.95826 25.7163 10.0847C25.1876 10.408 24.6608 10.7354 24.1376 11.0673C24.0362 11.1321 23.9576 11.1601 23.8715 11.0551C23.7863 10.9521 23.7812 10.8516 23.8842 10.7634C24.5058 10.2316 25.1942 9.81191 25.9907 9.50647Z" fill="#107614"/>
    <path d="M34.513 1.28247C34.5375 1.55477 34.4528 1.73171 34.2499 1.85664C33.7221 2.18299 33.1943 2.50883 32.6707 2.84079C32.5687 2.90504 32.485 2.92952 32.4004 2.82651C32.3157 2.72351 32.3173 2.61999 32.4193 2.53382C33.0368 2.0086 33.718 1.58893 34.513 1.28247Z" fill="#107614"/>
    <path d="M46.1244 6.48415C45.8924 6.3837 45.6706 6.28631 45.4472 6.19146C45.3218 6.13792 45.2968 6.0599 45.3789 5.94925C45.41 5.90794 45.4391 5.86511 45.4712 5.82432C45.897 5.27819 45.719 5.30573 46.4564 5.58924C46.6481 5.66267 46.6705 5.77179 46.5512 5.93293C46.4151 6.1165 46.2718 6.29497 46.1244 6.48415Z" fill="#107614"/>
    <path d="M51.3123 10.2387C51.2338 10.3494 51.1736 10.4406 51.1068 10.5268C50.7825 10.9506 50.782 10.9501 50.2945 10.7374C50.2604 10.7231 50.2267 10.7089 50.1926 10.6936C49.9391 10.5819 49.9315 10.5538 50.0936 10.3305C50.1064 10.3127 50.1207 10.2953 50.1339 10.278C50.498 9.78693 50.6036 9.76296 51.1456 10.0638C51.2083 10.099 51.2501 10.1719 51.3123 10.2387Z" fill="#107614"/>
    <path d="M14.777 9.66402C14.6995 9.7757 14.6449 9.92153 14.5399 9.99292C14.1498 10.2581 13.7449 10.5028 13.3395 10.7445C13.2875 10.7757 13.1998 10.7466 13.1289 10.7456C13.1315 10.6742 13.1045 10.5696 13.1412 10.5365C13.6011 10.1255 14.1223 9.81394 14.6949 9.59161C14.7224 9.61609 14.75 9.64006 14.777 9.66402Z" fill="#107614"/>
    <path d="M8.37648 9.60641C8.43359 9.81293 8.34486 9.93939 8.19036 10.0353C7.7967 10.2805 7.40457 10.5284 7.00632 10.7655C6.95482 10.7961 6.87017 10.7716 6.80133 10.7726C6.81255 10.6895 6.79317 10.5717 6.8411 10.5299C7.29238 10.1332 7.80231 9.83027 8.37648 9.60641Z" fill="#107614"/>
    <mask id="mask0_1080_5466" style="mask-type:luminance" maskUnits="userSpaceOnUse" x="0" y="12" width="56" height="1">
      <path d="M0.00154114 12.0908H55.9797V12.8908H0.00154114V12.0908Z" fill="white"/>
    </mask>
    <g mask="url(#mask0_1080_5466)">
      <path d="M37.5634 -14.2104L-0.374268 12.3539L18.4179 39.1921L56.356 12.6277L37.5634 -14.2104Z" fill="url(#paint0_linear_1080_5466)"/>
    </g>
    <path d="M73.1482 17.7269V2.37319H60.2314V17.6897C59.4823 17.6004 58.902 17.2705 58.4716 16.6846C58.106 16.1869 57.9184 15.6225 57.9179 15.0049C57.9148 10.9235 57.9133 6.84213 57.9179 2.76022C57.9194 1.24932 59.1901 0.00868262 60.7372 0.00613301C63.7004 0.0010338 66.6635 0.00460325 69.6267 0.00460325C70.6032 0.00460325 71.5802 0.0229604 72.5562 0.000523875C74.0538 -0.0346607 75.4551 1.19272 75.4525 2.90452C75.4474 6.90281 75.4627 10.9006 75.4433 14.8989C75.4377 16.0115 74.9972 16.9279 73.9503 17.4515C73.7162 17.5683 73.4521 17.6244 73.1482 17.7269Z" fill="#107614"/>
    <mask id="mask1_1080_5466" style="mask-type:luminance" maskUnits="userSpaceOnUse" x="61" y="4" width="11" height="7">
      <path d="M61.8774 4.56891H71.4068V10.0516H61.8774V4.56891Z" fill="white"/>
    </mask>
    <g mask="url(#mask1_1080_5466)">
      <mask id="mask2_1080_5466" style="mask-type:luminance" maskUnits="userSpaceOnUse" x="61" y="4" width="11" height="7">
        <path d="M70.9856 4.57401C68.5579 4.57401 66.1307 4.57401 63.7029 4.57452C63.2114 4.57452 62.7188 4.57706 62.2267 4.57452C62.1002 4.5735 62.0416 4.60358 62.0222 4.75146C61.9177 5.54337 62.0278 6.30111 62.3154 7.04355C63.1058 9.08375 65.2113 10.3264 67.3993 9.96081C69.2412 9.65282 70.4956 8.56771 71.1238 6.79522C71.3762 6.08388 71.4119 5.34858 71.2956 4.57401H70.9856Z" fill="white"/>
      </mask>
      <g mask="url(#mask2_1080_5466)">
        <mask id="mask3_1080_5466" style="mask-type:luminance" maskUnits="userSpaceOnUse" x="61" y="4" width="11" height="7">
          <path d="M70.9856 4.57401C68.5579 4.57401 66.1307 4.57401 63.7029 4.57452C63.2114 4.57452 62.7188 4.57706 62.2267 4.57452C62.1002 4.5735 62.0416 4.60358 62.0222 4.75146C61.9177 5.54337 62.0278 6.30111 62.3154 7.04355C63.1058 9.08375 65.2113 10.3264 67.3993 9.96081C69.2412 9.65282 70.4956 8.56771 71.1238 6.79522C71.3762 6.08388 71.4119 5.34858 71.2956 4.57401" fill="white"/>
        </mask>
        <g mask="url(#mask3_1080_5466)">
          <path d="M68.2886 0.112701L59.2151 6.46632L65.0415 14.7872L74.115 8.43359L68.2886 0.112701Z" fill="url(#paint1_linear_1080_5466)"/>
        </g>
      </g>
    </g>
    <mask id="mask4_1080_5466" style="mask-type:luminance" maskUnits="userSpaceOnUse" x="65" y="11" width="3" height="10">
      <path d="M65.611 11.5803H67.7384V19.9869H65.611V11.5803ZM65.6631 19.9869H67.7384V20.0001H65.6631V19.9869Z" fill="white"/>
    </mask>
    <g mask="url(#mask4_1080_5466)">
      <mask id="mask5_1080_5466" style="mask-type:luminance" maskUnits="userSpaceOnUse" x="65" y="11" width="3" height="10">
        <path d="M65.6151 11.5818V19.9818C65.7059 19.9894 65.7706 19.9991 65.8359 19.9991C66.4606 20.0001 67.0847 20.0001 67.7318 20.0001V11.5818H65.6151Z" fill="white"/>
      </mask>
      <g mask="url(#mask5_1080_5466)">
        <path d="M67.0352 10.587L61.6597 14.3512L66.3112 20.9945L71.6867 17.2308L67.0352 10.587Z" fill="url(#paint2_linear_1080_5466)"/>
      </g>
    </g>
    <mask id="mask6_1080_5466" style="mask-type:luminance" maskUnits="userSpaceOnUse" x="69" y="11" width="3" height="10">
      <path d="M69.1876 11.4875H71.4068V20.0001H69.1876V11.4875Z" fill="white"/>
    </mask>
    <g mask="url(#mask6_1080_5466)">
      <mask id="mask7_1080_5466" style="mask-type:luminance" maskUnits="userSpaceOnUse" x="69" y="11" width="3" height="9">
        <path d="M69.1978 11.5788V19.9752C70.4487 20.1353 71.3288 19.3663 71.3293 18.1369C71.3298 16.0421 71.3288 13.9474 71.3283 11.8526C71.3283 11.7644 71.3206 11.6762 71.316 11.5788H69.1978Z" fill="white"/>
      </mask>
      <g mask="url(#mask7_1080_5466)">
        <mask id="mask8_1080_5466" style="mask-type:luminance" maskUnits="userSpaceOnUse" x="69" y="11" width="3" height="9">
          <path d="M69.1978 11.5788V19.9752C70.4487 20.1353 71.3288 19.3663 71.3293 18.1369C71.3298 16.0421 71.3288 13.9474 71.3283 11.8526C71.3283 11.7644 71.3206 11.6762 71.316 11.5788" fill="white"/>
        </mask>
        <g mask="url(#mask8_1080_5466)">
          <path d="M70.6286 10.5773L65.2413 14.3492L69.8995 21.0016L75.2863 17.2297L70.6286 10.5773Z" fill="url(#paint3_linear_1080_5466)"/>
        </g>
      </g>
    </g>
    <mask id="mask9_1080_5466" style="mask-type:luminance" maskUnits="userSpaceOnUse" x="62" y="11" width="3" height="10">
      <path d="M62.0079 11.4875H64.2271V20.0001H62.0079V11.4875Z" fill="white"/>
    </mask>
    <g mask="url(#mask9_1080_5466)">
      <mask id="mask10_1080_5466" style="mask-type:luminance" maskUnits="userSpaceOnUse" x="62" y="11" width="3" height="9">
        <path d="M62.0355 11.5818C62.0299 11.6435 62.0248 11.6762 62.0248 11.7088C62.0253 13.8688 62.0156 16.0289 62.0314 18.1889C62.0396 19.3821 62.9151 20.1184 64.1307 19.9767V11.5818H62.0355Z" fill="white"/>
      </mask>
      <g mask="url(#mask10_1080_5466)">
        <mask id="mask11_1080_5466" style="mask-type:luminance" maskUnits="userSpaceOnUse" x="62" y="11" width="3" height="9">
          <path d="M62.0355 11.5818C62.0299 11.6435 62.0248 11.6762 62.0248 11.7088C62.0253 13.8688 62.0156 16.0289 62.0314 18.1889C62.0396 19.3821 62.9151 20.1184 64.1307 19.9767V11.5818" fill="white"/>
        </mask>
        <g mask="url(#mask11_1080_5466)">
          <path d="M63.4347 10.588L58.0601 14.3517L62.7116 20.994L68.0857 17.2308L63.4347 10.588Z" fill="url(#paint4_linear_1080_5466)"/>
        </g>
      </g>
    </g>
  </g>
  <defs>
    <linearGradient id="paint0_linear_1080_5466" x1="18.5946" y1="-0.928335" x2="37.3869" y2="25.9099" gradientUnits="userSpaceOnUse">
      <stop stop-color="#F9C60E"/>
      <stop offset="0.0078125" stop-color="#F9C60E"/>
      <stop offset="0.015625" stop-color="#F9C50E"/>
      <stop offset="0.0234375" stop-color="#F9C40E"/>
      <stop offset="0.03125" stop-color="#F9C30E"/>
      <stop offset="0.0390625" stop-color="#F9C30E"/>
      <stop offset="0.046875" stop-color="#F9C20E"/>
      <stop offset="0.0546875" stop-color="#F9C10E"/>
      <stop offset="0.0625" stop-color="#F9C00D"/>
      <stop offset="0.0703125" stop-color="#F9C00D"/>
      <stop offset="0.078125" stop-color="#F9BF0D"/>
      <stop offset="0.0859375" stop-color="#F9BE0D"/>
      <stop offset="0.09375" stop-color="#F9BD0D"/>
      <stop offset="0.101563" stop-color="#F9BD0D"/>
      <stop offset="0.109375" stop-color="#F9BC0D"/>
      <stop offset="0.117187" stop-color="#F9BB0D"/>
      <stop offset="0.125" stop-color="#F9BA0D"/>
      <stop offset="0.132813" stop-color="#FAB90D"/>
      <stop offset="0.140625" stop-color="#FAB90D"/>
      <stop offset="0.148437" stop-color="#FAB80D"/>
      <stop offset="0.15625" stop-color="#FAB70D"/>
      <stop offset="0.164063" stop-color="#FAB60D"/>
      <stop offset="0.171875" stop-color="#FAB60C"/>
      <stop offset="0.179688" stop-color="#FAB50C"/>
      <stop offset="0.1875" stop-color="#FAB40C"/>
      <stop offset="0.195313" stop-color="#FAB30C"/>
      <stop offset="0.203125" stop-color="#FAB30C"/>
      <stop offset="0.210938" stop-color="#FAB20C"/>
      <stop offset="0.21875" stop-color="#FAB10C"/>
      <stop offset="0.226563" stop-color="#FAB00C"/>
      <stop offset="0.234375" stop-color="#FAB00C"/>
      <stop offset="0.242188" stop-color="#FAAF0C"/>
      <stop offset="0.25" stop-color="#FAAE0C"/>
      <stop offset="0.257813" stop-color="#FAAD0C"/>
      <stop offset="0.265625" stop-color="#FAAD0C"/>
      <stop offset="0.273438" stop-color="#FAAC0C"/>
      <stop offset="0.28125" stop-color="#FAAB0C"/>
      <stop offset="0.289063" stop-color="#FAAA0B"/>
      <stop offset="0.296875" stop-color="#FAAA0B"/>
      <stop offset="0.304687" stop-color="#FAA90B"/>
      <stop offset="0.3125" stop-color="#FAA80B"/>
      <stop offset="0.320313" stop-color="#FAA70B"/>
      <stop offset="0.328125" stop-color="#FAA70B"/>
      <stop offset="0.335938" stop-color="#FAA60B"/>
      <stop offset="0.34375" stop-color="#FAA50B"/>
      <stop offset="0.351562" stop-color="#FAA40B"/>
      <stop offset="0.359375" stop-color="#FAA40B"/>
      <stop offset="0.367188" stop-color="#FAA30B"/>
      <stop offset="0.375" stop-color="#FAA20B"/>
      <stop offset="0.382812" stop-color="#FBA10B"/>
      <stop offset="0.390625" stop-color="#FBA00B"/>
      <stop offset="0.398438" stop-color="#FBA00A"/>
      <stop offset="0.40625" stop-color="#FB9F0A"/>
      <stop offset="0.414063" stop-color="#FB9E0A"/>
      <stop offset="0.421875" stop-color="#FB9D0A"/>
      <stop offset="0.429687" stop-color="#FB9D0A"/>
      <stop offset="0.4375" stop-color="#FB9C0A"/>
      <stop offset="0.445313" stop-color="#FB9B0A"/>
      <stop offset="0.453125" stop-color="#FB9A0A"/>
      <stop offset="0.460937" stop-color="#FB9A0A"/>
      <stop offset="0.46875" stop-color="#FB990A"/>
      <stop offset="0.476562" stop-color="#FB980A"/>
      <stop offset="0.484375" stop-color="#FB970A"/>
      <stop offset="0.492188" stop-color="#FB970A"/>
      <stop offset="0.5" stop-color="#FB960A"/>
      <stop offset="0.507813" stop-color="#FB9509"/>
      <stop offset="0.515625" stop-color="#FB9409"/>
      <stop offset="0.523438" stop-color="#FB9409"/>
      <stop offset="0.53125" stop-color="#FB9309"/>
      <stop offset="0.539063" stop-color="#FB9209"/>
      <stop offset="0.546875" stop-color="#FB9109"/>
      <stop offset="0.554687" stop-color="#FB9109"/>
      <stop offset="0.5625" stop-color="#FB9009"/>
      <stop offset="0.570312" stop-color="#FB8F09"/>
      <stop offset="0.578125" stop-color="#FB8E09"/>
      <stop offset="0.585937" stop-color="#FB8E09"/>
      <stop offset="0.59375" stop-color="#FB8D09"/>
      <stop offset="0.601563" stop-color="#FB8C09"/>
      <stop offset="0.609375" stop-color="#FB8B09"/>
      <stop offset="0.617188" stop-color="#FB8B08"/>
      <stop offset="0.625" stop-color="#FB8A08"/>
      <stop offset="0.632812" stop-color="#FC8908"/>
      <stop offset="0.640625" stop-color="#FC8808"/>
      <stop offset="0.648437" stop-color="#FC8708"/>
      <stop offset="0.65625" stop-color="#FC8708"/>
      <stop offset="0.664063" stop-color="#FC8608"/>
      <stop offset="0.671875" stop-color="#FC8508"/>
      <stop offset="0.679688" stop-color="#FC8408"/>
      <stop offset="0.6875" stop-color="#FC8408"/>
      <stop offset="0.695313" stop-color="#FC8308"/>
      <stop offset="0.703125" stop-color="#FC8208"/>
      <stop offset="0.710937" stop-color="#FC8108"/>
      <stop offset="0.71875" stop-color="#FC8108"/>
      <stop offset="0.726563" stop-color="#FC8007"/>
      <stop offset="0.734375" stop-color="#FC7F07"/>
      <stop offset="0.742188" stop-color="#FC7E07"/>
      <stop offset="0.75" stop-color="#FC7E07"/>
      <stop offset="0.757813" stop-color="#FC7D07"/>
      <stop offset="0.765625" stop-color="#FC7C07"/>
      <stop offset="0.773438" stop-color="#FC7B07"/>
      <stop offset="0.78125" stop-color="#FC7B07"/>
      <stop offset="0.789063" stop-color="#FC7A07"/>
      <stop offset="0.796875" stop-color="#FC7907"/>
      <stop offset="0.804688" stop-color="#FC7807"/>
      <stop offset="0.8125" stop-color="#FC7807"/>
      <stop offset="0.820313" stop-color="#FC7707"/>
      <stop offset="0.828125" stop-color="#FC7607"/>
      <stop offset="0.835938" stop-color="#FC7507"/>
      <stop offset="0.84375" stop-color="#FC7506"/>
      <stop offset="0.851563" stop-color="#FC7406"/>
      <stop offset="0.859375" stop-color="#FC7306"/>
      <stop offset="0.867187" stop-color="#FC7206"/>
      <stop offset="0.875" stop-color="#FC7206"/>
      <stop offset="0.882813" stop-color="#FD7106"/>
      <stop offset="0.890625" stop-color="#FD7006"/>
      <stop offset="0.898438" stop-color="#FD6F06"/>
      <stop offset="0.90625" stop-color="#FD6E06"/>
      <stop offset="0.914063" stop-color="#FD6E06"/>
      <stop offset="0.921875" stop-color="#FD6D06"/>
      <stop offset="0.929688" stop-color="#FD6C06"/>
      <stop offset="0.9375" stop-color="#FD6B06"/>
      <stop offset="0.945312" stop-color="#FD6B06"/>
      <stop offset="0.953125" stop-color="#FD6A05"/>
      <stop offset="0.960937" stop-color="#FD6905"/>
      <stop offset="0.96875" stop-color="#FD6805"/>
      <stop offset="0.976563" stop-color="#FD6805"/>
      <stop offset="0.984375" stop-color="#FD6705"/>
      <stop offset="0.992188" stop-color="#FD6605"/>
      <stop offset="1" stop-color="#FD6505"/>
    </linearGradient>
    <linearGradient id="paint1_linear_1080_5466" x1="64.5613" y1="2.72276" x2="70.3876" y2="11.0436" gradientUnits="userSpaceOnUse">
      <stop stop-color="#F9C60E"/>
      <stop offset="0.015625" stop-color="#F9C60E"/>
      <stop offset="0.0234375" stop-color="#F9C50E"/>
      <stop offset="0.03125" stop-color="#F9C40E"/>
      <stop offset="0.0390625" stop-color="#F9C30E"/>
      <stop offset="0.046875" stop-color="#F9C20E"/>
      <stop offset="0.0546875" stop-color="#F9C10E"/>
      <stop offset="0.0625" stop-color="#F9C00D"/>
      <stop offset="0.0703125" stop-color="#F9BF0D"/>
      <stop offset="0.078125" stop-color="#F9BE0D"/>
      <stop offset="0.0859375" stop-color="#F9BD0D"/>
      <stop offset="0.09375" stop-color="#F9BC0D"/>
      <stop offset="0.101563" stop-color="#F9BB0D"/>
      <stop offset="0.109375" stop-color="#F9BA0D"/>
      <stop offset="0.117188" stop-color="#FAB90D"/>
      <stop offset="0.125" stop-color="#FAB80D"/>
      <stop offset="0.132813" stop-color="#FAB70D"/>
      <stop offset="0.140625" stop-color="#FAB70D"/>
      <stop offset="0.148438" stop-color="#FAB60C"/>
      <stop offset="0.15625" stop-color="#FAB50C"/>
      <stop offset="0.164063" stop-color="#FAB40C"/>
      <stop offset="0.171875" stop-color="#FAB30C"/>
      <stop offset="0.179688" stop-color="#FAB20C"/>
      <stop offset="0.1875" stop-color="#FAB10C"/>
      <stop offset="0.195313" stop-color="#FAB00C"/>
      <stop offset="0.203125" stop-color="#FAAF0C"/>
      <stop offset="0.210938" stop-color="#FAAE0C"/>
      <stop offset="0.21875" stop-color="#FAAD0C"/>
      <stop offset="0.226562" stop-color="#FAAC0C"/>
      <stop offset="0.234375" stop-color="#FAAB0B"/>
      <stop offset="0.242188" stop-color="#FAAA0B"/>
      <stop offset="0.25" stop-color="#FAA90B"/>
      <stop offset="0.257813" stop-color="#FAA80B"/>
      <stop offset="0.265625" stop-color="#FAA70B"/>
      <stop offset="0.273438" stop-color="#FAA60B"/>
      <stop offset="0.28125" stop-color="#FAA50B"/>
      <stop offset="0.289063" stop-color="#FAA40B"/>
      <stop offset="0.296875" stop-color="#FAA30B"/>
      <stop offset="0.304687" stop-color="#FAA20B"/>
      <stop offset="0.3125" stop-color="#FBA10B"/>
      <stop offset="0.320313" stop-color="#FBA00A"/>
      <stop offset="0.328125" stop-color="#FB9F0A"/>
      <stop offset="0.335937" stop-color="#FB9E0A"/>
      <stop offset="0.34375" stop-color="#FB9D0A"/>
      <stop offset="0.351563" stop-color="#FB9C0A"/>
      <stop offset="0.359375" stop-color="#FB9B0A"/>
      <stop offset="0.367187" stop-color="#FB9A0A"/>
      <stop offset="0.375" stop-color="#FB990A"/>
      <stop offset="0.382813" stop-color="#FB980A"/>
      <stop offset="0.390625" stop-color="#FB970A"/>
      <stop offset="0.398438" stop-color="#FB970A"/>
      <stop offset="0.40625" stop-color="#FB960A"/>
      <stop offset="0.414063" stop-color="#FB9509"/>
      <stop offset="0.421875" stop-color="#FB9409"/>
      <stop offset="0.429688" stop-color="#FB9309"/>
      <stop offset="0.4375" stop-color="#FB9209"/>
      <stop offset="0.445313" stop-color="#FB9109"/>
      <stop offset="0.453125" stop-color="#FB9009"/>
      <stop offset="0.460938" stop-color="#FB8F09"/>
      <stop offset="0.46875" stop-color="#FB8E09"/>
      <stop offset="0.476563" stop-color="#FB8D09"/>
      <stop offset="0.484375" stop-color="#FB8C09"/>
      <stop offset="0.492188" stop-color="#FB8B09"/>
      <stop offset="0.5" stop-color="#FB8A08"/>
      <stop offset="0.507813" stop-color="#FC8908"/>
      <stop offset="0.515625" stop-color="#FC8808"/>
      <stop offset="0.523438" stop-color="#FC8708"/>
      <stop offset="0.53125" stop-color="#FC8608"/>
      <stop offset="0.539063" stop-color="#FC8508"/>
      <stop offset="0.546875" stop-color="#FC8408"/>
      <stop offset="0.554688" stop-color="#FC8308"/>
      <stop offset="0.5625" stop-color="#FC8208"/>
      <stop offset="0.570313" stop-color="#FC8108"/>
      <stop offset="0.578125" stop-color="#FC8008"/>
      <stop offset="0.585938" stop-color="#FC7F07"/>
      <stop offset="0.59375" stop-color="#FC7E07"/>
      <stop offset="0.601563" stop-color="#FC7D07"/>
      <stop offset="0.609375" stop-color="#FC7C07"/>
      <stop offset="0.617188" stop-color="#FC7B07"/>
      <stop offset="0.625" stop-color="#FC7A07"/>
      <stop offset="0.632813" stop-color="#FC7907"/>
      <stop offset="0.640625" stop-color="#FC7807"/>
      <stop offset="0.648438" stop-color="#FC7707"/>
      <stop offset="0.65625" stop-color="#FC7707"/>
      <stop offset="0.664063" stop-color="#FC7607"/>
      <stop offset="0.671875" stop-color="#FC7506"/>
      <stop offset="0.679688" stop-color="#FC7406"/>
      <stop offset="0.6875" stop-color="#FC7306"/>
      <stop offset="0.695313" stop-color="#FC7206"/>
      <stop offset="0.703125" stop-color="#FD7106"/>
      <stop offset="0.710938" stop-color="#FD7006"/>
      <stop offset="0.71875" stop-color="#FD6F06"/>
      <stop offset="0.726563" stop-color="#FD6E06"/>
      <stop offset="0.734375" stop-color="#FD6D06"/>
      <stop offset="0.742188" stop-color="#FD6C06"/>
      <stop offset="0.75" stop-color="#FD6B06"/>
      <stop offset="0.757813" stop-color="#FD6A05"/>
      <stop offset="0.765625" stop-color="#FD6905"/>
      <stop offset="0.773438" stop-color="#FD6805"/>
      <stop offset="0.78125" stop-color="#FD6705"/>
      <stop offset="0.789063" stop-color="#FD6605"/>
      <stop offset="0.796875" stop-color="#FD6505"/>
      <stop offset="0.8125" stop-color="#FD6505"/>
      <stop offset="0.875" stop-color="#FD6505"/>
      <stop offset="1" stop-color="#FD6505"/>
    </linearGradient>
    <linearGradient id="paint2_linear_1080_5466" x1="64.3517" y1="12.4663" x2="69.0034" y2="19.1096" gradientUnits="userSpaceOnUse">
      <stop stop-color="#F9C60E"/>
      <stop offset="0.0078125" stop-color="#F9C60E"/>
      <stop offset="0.015625" stop-color="#F9C50E"/>
      <stop offset="0.0234375" stop-color="#F9C40E"/>
      <stop offset="0.03125" stop-color="#F9C30E"/>
      <stop offset="0.0390625" stop-color="#F9C30E"/>
      <stop offset="0.046875" stop-color="#F9C20E"/>
      <stop offset="0.0546875" stop-color="#F9C10E"/>
      <stop offset="0.0625" stop-color="#F9C00D"/>
      <stop offset="0.0703125" stop-color="#F9C00D"/>
      <stop offset="0.078125" stop-color="#F9BF0D"/>
      <stop offset="0.0859375" stop-color="#F9BE0D"/>
      <stop offset="0.09375" stop-color="#F9BD0D"/>
      <stop offset="0.101563" stop-color="#F9BD0D"/>
      <stop offset="0.109375" stop-color="#F9BC0D"/>
      <stop offset="0.117188" stop-color="#F9BB0D"/>
      <stop offset="0.125" stop-color="#F9BA0D"/>
      <stop offset="0.132813" stop-color="#FAB90D"/>
      <stop offset="0.140625" stop-color="#FAB90D"/>
      <stop offset="0.148438" stop-color="#FAB80D"/>
      <stop offset="0.15625" stop-color="#FAB70D"/>
      <stop offset="0.164063" stop-color="#FAB60D"/>
      <stop offset="0.171875" stop-color="#FAB60C"/>
      <stop offset="0.179688" stop-color="#FAB50C"/>
      <stop offset="0.1875" stop-color="#FAB40C"/>
      <stop offset="0.195313" stop-color="#FAB30C"/>
      <stop offset="0.203125" stop-color="#FAB30C"/>
      <stop offset="0.210938" stop-color="#FAB20C"/>
      <stop offset="0.21875" stop-color="#FAB10C"/>
      <stop offset="0.226563" stop-color="#FAB00C"/>
      <stop offset="0.234375" stop-color="#FAB00C"/>
      <stop offset="0.242188" stop-color="#FAAF0C"/>
      <stop offset="0.25" stop-color="#FAAE0C"/>
      <stop offset="0.257813" stop-color="#FAAD0C"/>
      <stop offset="0.265625" stop-color="#FAAD0C"/>
      <stop offset="0.273438" stop-color="#FAAC0C"/>
      <stop offset="0.28125" stop-color="#FAAB0C"/>
      <stop offset="0.289063" stop-color="#FAAA0B"/>
      <stop offset="0.296875" stop-color="#FAAA0B"/>
      <stop offset="0.304688" stop-color="#FAA90B"/>
      <stop offset="0.3125" stop-color="#FAA80B"/>
      <stop offset="0.320313" stop-color="#FAA70B"/>
      <stop offset="0.328125" stop-color="#FAA70B"/>
      <stop offset="0.335938" stop-color="#FAA60B"/>
      <stop offset="0.34375" stop-color="#FAA50B"/>
      <stop offset="0.351563" stop-color="#FAA40B"/>
      <stop offset="0.359375" stop-color="#FAA40B"/>
      <stop offset="0.367188" stop-color="#FAA30B"/>
      <stop offset="0.375" stop-color="#FAA20B"/>
      <stop offset="0.382813" stop-color="#FBA10B"/>
      <stop offset="0.390625" stop-color="#FBA00B"/>
      <stop offset="0.398438" stop-color="#FBA00A"/>
      <stop offset="0.40625" stop-color="#FB9F0A"/>
      <stop offset="0.414063" stop-color="#FB9E0A"/>
      <stop offset="0.421875" stop-color="#FB9D0A"/>
      <stop offset="0.429688" stop-color="#FB9D0A"/>
      <stop offset="0.4375" stop-color="#FB9C0A"/>
      <stop offset="0.445313" stop-color="#FB9B0A"/>
      <stop offset="0.453125" stop-color="#FB9A0A"/>
      <stop offset="0.460938" stop-color="#FB9A0A"/>
      <stop offset="0.46875" stop-color="#FB990A"/>
      <stop offset="0.476563" stop-color="#FB980A"/>
      <stop offset="0.484375" stop-color="#FB970A"/>
      <stop offset="0.492188" stop-color="#FB970A"/>
      <stop offset="0.5" stop-color="#FB960A"/>
      <stop offset="0.507812" stop-color="#FB9509"/>
      <stop offset="0.515625" stop-color="#FB9409"/>
      <stop offset="0.523438" stop-color="#FB9409"/>
      <stop offset="0.53125" stop-color="#FB9309"/>
      <stop offset="0.539063" stop-color="#FB9209"/>
      <stop offset="0.546875" stop-color="#FB9109"/>
      <stop offset="0.554688" stop-color="#FB9109"/>
      <stop offset="0.5625" stop-color="#FB9009"/>
      <stop offset="0.570313" stop-color="#FB8F09"/>
      <stop offset="0.578125" stop-color="#FB8E09"/>
      <stop offset="0.585938" stop-color="#FB8E09"/>
      <stop offset="0.59375" stop-color="#FB8D09"/>
      <stop offset="0.601562" stop-color="#FB8C09"/>
      <stop offset="0.609375" stop-color="#FB8B09"/>
      <stop offset="0.617188" stop-color="#FB8B08"/>
      <stop offset="0.625" stop-color="#FB8A08"/>
      <stop offset="0.632813" stop-color="#FC8908"/>
      <stop offset="0.640625" stop-color="#FC8808"/>
      <stop offset="0.648438" stop-color="#FC8708"/>
      <stop offset="0.65625" stop-color="#FC8708"/>
      <stop offset="0.664063" stop-color="#FC8608"/>
      <stop offset="0.671875" stop-color="#FC8508"/>
      <stop offset="0.679688" stop-color="#FC8408"/>
      <stop offset="0.6875" stop-color="#FC8408"/>
      <stop offset="0.695312" stop-color="#FC8308"/>
      <stop offset="0.703125" stop-color="#FC8208"/>
      <stop offset="0.710938" stop-color="#FC8108"/>
      <stop offset="0.71875" stop-color="#FC8108"/>
      <stop offset="0.726563" stop-color="#FC8007"/>
      <stop offset="0.734375" stop-color="#FC7F07"/>
      <stop offset="0.742188" stop-color="#FC7E07"/>
      <stop offset="0.75" stop-color="#FC7E07"/>
      <stop offset="0.757813" stop-color="#FC7D07"/>
      <stop offset="0.765625" stop-color="#FC7C07"/>
      <stop offset="0.773438" stop-color="#FC7B07"/>
      <stop offset="0.78125" stop-color="#FC7B07"/>
      <stop offset="0.789062" stop-color="#FC7A07"/>
      <stop offset="0.796875" stop-color="#FC7907"/>
      <stop offset="0.804688" stop-color="#FC7807"/>
      <stop offset="0.8125" stop-color="#FC7807"/>
      <stop offset="0.820313" stop-color="#FC7707"/>
      <stop offset="0.828125" stop-color="#FC7607"/>
      <stop offset="0.835938" stop-color="#FC7507"/>
      <stop offset="0.84375" stop-color="#FC7506"/>
      <stop offset="0.851563" stop-color="#FC7406"/>
      <stop offset="0.859375" stop-color="#FC7306"/>
      <stop offset="0.867188" stop-color="#FC7206"/>
      <stop offset="0.875" stop-color="#FC7206"/>
      <stop offset="0.882812" stop-color="#FD7106"/>
      <stop offset="0.890625" stop-color="#FD7006"/>
      <stop offset="0.898438" stop-color="#FD6F06"/>
      <stop offset="0.90625" stop-color="#FD6E06"/>
      <stop offset="0.914063" stop-color="#FD6E06"/>
      <stop offset="0.921875" stop-color="#FD6D06"/>
      <stop offset="0.929688" stop-color="#FD6C06"/>
      <stop offset="0.9375" stop-color="#FD6B06"/>
      <stop offset="0.945313" stop-color="#FD6B06"/>
      <stop offset="0.953125" stop-color="#FD6A05"/>
      <stop offset="0.960938" stop-color="#FD6905"/>
      <stop offset="0.96875" stop-color="#FD6805"/>
      <stop offset="0.976562" stop-color="#FD6805"/>
      <stop offset="0.984375" stop-color="#FD6705"/>
      <stop offset="0.992188" stop-color="#FD6605"/>
      <stop offset="1" stop-color="#FD6505"/>
    </linearGradient>
    <linearGradient id="paint3_linear_1080_5466" x1="67.936" y1="12.4626" x2="72.5939" y2="19.1148" gradientUnits="userSpaceOnUse">
      <stop stop-color="#F9C60E"/>
      <stop offset="0.0078125" stop-color="#F9C60E"/>
      <stop offset="0.015625" stop-color="#F9C50E"/>
      <stop offset="0.0234375" stop-color="#F9C40E"/>
      <stop offset="0.03125" stop-color="#F9C30E"/>
      <stop offset="0.0390625" stop-color="#F9C20E"/>
      <stop offset="0.046875" stop-color="#F9C10E"/>
      <stop offset="0.0546875" stop-color="#F9C10D"/>
      <stop offset="0.0625" stop-color="#F9C00D"/>
      <stop offset="0.0703125" stop-color="#F9BF0D"/>
      <stop offset="0.078125" stop-color="#F9BE0D"/>
      <stop offset="0.0859375" stop-color="#F9BD0D"/>
      <stop offset="0.09375" stop-color="#F9BC0D"/>
      <stop offset="0.101562" stop-color="#F9BC0D"/>
      <stop offset="0.109375" stop-color="#F9BB0D"/>
      <stop offset="0.117188" stop-color="#F9BA0D"/>
      <stop offset="0.125" stop-color="#FAB90D"/>
      <stop offset="0.132812" stop-color="#FAB80D"/>
      <stop offset="0.140625" stop-color="#FAB80D"/>
      <stop offset="0.148438" stop-color="#FAB70D"/>
      <stop offset="0.15625" stop-color="#FAB60D"/>
      <stop offset="0.164062" stop-color="#FAB50C"/>
      <stop offset="0.171875" stop-color="#FAB40C"/>
      <stop offset="0.179687" stop-color="#FAB30C"/>
      <stop offset="0.1875" stop-color="#FAB30C"/>
      <stop offset="0.195313" stop-color="#FAB20C"/>
      <stop offset="0.203125" stop-color="#FAB10C"/>
      <stop offset="0.210937" stop-color="#FAB00C"/>
      <stop offset="0.21875" stop-color="#FAAF0C"/>
      <stop offset="0.226563" stop-color="#FAAE0C"/>
      <stop offset="0.234375" stop-color="#FAAE0C"/>
      <stop offset="0.242188" stop-color="#FAAD0C"/>
      <stop offset="0.25" stop-color="#FAAC0C"/>
      <stop offset="0.257812" stop-color="#FAAB0C"/>
      <stop offset="0.265625" stop-color="#FAAA0B"/>
      <stop offset="0.273437" stop-color="#FAA90B"/>
      <stop offset="0.28125" stop-color="#FAA90B"/>
      <stop offset="0.289063" stop-color="#FAA80B"/>
      <stop offset="0.296875" stop-color="#FAA70B"/>
      <stop offset="0.304687" stop-color="#FAA60B"/>
      <stop offset="0.3125" stop-color="#FAA50B"/>
      <stop offset="0.320312" stop-color="#FAA40B"/>
      <stop offset="0.328125" stop-color="#FAA40B"/>
      <stop offset="0.335938" stop-color="#FAA30B"/>
      <stop offset="0.34375" stop-color="#FAA20B"/>
      <stop offset="0.351562" stop-color="#FBA10B"/>
      <stop offset="0.359375" stop-color="#FBA00B"/>
      <stop offset="0.367187" stop-color="#FBA00A"/>
      <stop offset="0.375" stop-color="#FB9F0A"/>
      <stop offset="0.382813" stop-color="#FB9E0A"/>
      <stop offset="0.390625" stop-color="#FB9D0A"/>
      <stop offset="0.398437" stop-color="#FB9C0A"/>
      <stop offset="0.40625" stop-color="#FB9B0A"/>
      <stop offset="0.414062" stop-color="#FB9B0A"/>
      <stop offset="0.421875" stop-color="#FB9A0A"/>
      <stop offset="0.429688" stop-color="#FB990A"/>
      <stop offset="0.4375" stop-color="#FB980A"/>
      <stop offset="0.445312" stop-color="#FB970A"/>
      <stop offset="0.453125" stop-color="#FB960A"/>
      <stop offset="0.460937" stop-color="#FB960A"/>
      <stop offset="0.46875" stop-color="#FB9509"/>
      <stop offset="0.476562" stop-color="#FB9409"/>
      <stop offset="0.484375" stop-color="#FB9309"/>
      <stop offset="0.492187" stop-color="#FB9209"/>
      <stop offset="0.5" stop-color="#FB9109"/>
      <stop offset="0.507812" stop-color="#FB9109"/>
      <stop offset="0.515625" stop-color="#FB9009"/>
      <stop offset="0.523438" stop-color="#FB8F09"/>
      <stop offset="0.53125" stop-color="#FB8E09"/>
      <stop offset="0.539063" stop-color="#FB8D09"/>
      <stop offset="0.546875" stop-color="#FB8D09"/>
      <stop offset="0.554687" stop-color="#FB8C09"/>
      <stop offset="0.5625" stop-color="#FB8B09"/>
      <stop offset="0.570312" stop-color="#FB8A08"/>
      <stop offset="0.578125" stop-color="#FC8908"/>
      <stop offset="0.585938" stop-color="#FC8808"/>
      <stop offset="0.59375" stop-color="#FC8808"/>
      <stop offset="0.601562" stop-color="#FC8708"/>
      <stop offset="0.609375" stop-color="#FC8608"/>
      <stop offset="0.617188" stop-color="#FC8508"/>
      <stop offset="0.625" stop-color="#FC8408"/>
      <stop offset="0.632813" stop-color="#FC8308"/>
      <stop offset="0.640625" stop-color="#FC8308"/>
      <stop offset="0.648437" stop-color="#FC8208"/>
      <stop offset="0.65625" stop-color="#FC8108"/>
      <stop offset="0.664062" stop-color="#FC8008"/>
      <stop offset="0.671875" stop-color="#FC7F07"/>
      <stop offset="0.679688" stop-color="#FC7E07"/>
      <stop offset="0.6875" stop-color="#FC7E07"/>
      <stop offset="0.695312" stop-color="#FC7D07"/>
      <stop offset="0.703125" stop-color="#FC7C07"/>
      <stop offset="0.710938" stop-color="#FC7B07"/>
      <stop offset="0.71875" stop-color="#FC7A07"/>
      <stop offset="0.726563" stop-color="#FC7907"/>
      <stop offset="0.734375" stop-color="#FC7907"/>
      <stop offset="0.742187" stop-color="#FC7807"/>
      <stop offset="0.75" stop-color="#FC7707"/>
      <stop offset="0.757812" stop-color="#FC7607"/>
      <stop offset="0.765625" stop-color="#FC7507"/>
      <stop offset="0.773438" stop-color="#FC7506"/>
      <stop offset="0.78125" stop-color="#FC7406"/>
      <stop offset="0.789062" stop-color="#FC7306"/>
      <stop offset="0.796875" stop-color="#FC7206"/>
      <stop offset="0.804688" stop-color="#FC7106"/>
      <stop offset="0.8125" stop-color="#FD7006"/>
      <stop offset="0.820313" stop-color="#FD7006"/>
      <stop offset="0.828125" stop-color="#FD6F06"/>
      <stop offset="0.835937" stop-color="#FD6E06"/>
      <stop offset="0.84375" stop-color="#FD6D06"/>
      <stop offset="0.851562" stop-color="#FD6C06"/>
      <stop offset="0.859375" stop-color="#FD6B06"/>
      <stop offset="0.867188" stop-color="#FD6B06"/>
      <stop offset="0.875" stop-color="#FD6A05"/>
      <stop offset="0.882813" stop-color="#FD6905"/>
      <stop offset="0.890625" stop-color="#FD6805"/>
      <stop offset="0.898438" stop-color="#FD6705"/>
      <stop offset="0.90625" stop-color="#FD6605"/>
      <stop offset="0.914063" stop-color="#FD6605"/>
      <stop offset="0.921875" stop-color="#FD6505"/>
      <stop offset="0.9375" stop-color="#FD6505"/>
      <stop offset="1" stop-color="#FD6505"/>
    </linearGradient>
    <linearGradient id="paint4_linear_1080_5466" x1="61.0299" y1="12.2722" x2="65.6809" y2="18.9146" gradientUnits="userSpaceOnUse">
      <stop stop-color="#F9C60E"/>
      <stop offset="0.0078125" stop-color="#F9C60E"/>
      <stop offset="0.015625" stop-color="#F9C50E"/>
      <stop offset="0.0234375" stop-color="#F9C40E"/>
      <stop offset="0.03125" stop-color="#F9C30E"/>
      <stop offset="0.0390625" stop-color="#F9C30E"/>
      <stop offset="0.046875" stop-color="#F9C20E"/>
      <stop offset="0.0546875" stop-color="#F9C10E"/>
      <stop offset="0.0625" stop-color="#F9C00D"/>
      <stop offset="0.0703125" stop-color="#F9C00D"/>
      <stop offset="0.078125" stop-color="#F9BF0D"/>
      <stop offset="0.0859375" stop-color="#F9BE0D"/>
      <stop offset="0.09375" stop-color="#F9BD0D"/>
      <stop offset="0.101563" stop-color="#F9BD0D"/>
      <stop offset="0.109375" stop-color="#F9BC0D"/>
      <stop offset="0.117187" stop-color="#F9BB0D"/>
      <stop offset="0.125" stop-color="#F9BA0D"/>
      <stop offset="0.132813" stop-color="#FABA0D"/>
      <stop offset="0.140625" stop-color="#FAB90D"/>
      <stop offset="0.148437" stop-color="#FAB80D"/>
      <stop offset="0.15625" stop-color="#FAB70D"/>
      <stop offset="0.164062" stop-color="#FAB70D"/>
      <stop offset="0.171875" stop-color="#FAB60C"/>
      <stop offset="0.179688" stop-color="#FAB50C"/>
      <stop offset="0.1875" stop-color="#FAB40C"/>
      <stop offset="0.195312" stop-color="#FAB30C"/>
      <stop offset="0.203125" stop-color="#FAB30C"/>
      <stop offset="0.210938" stop-color="#FAB20C"/>
      <stop offset="0.21875" stop-color="#FAB10C"/>
      <stop offset="0.226562" stop-color="#FAB00C"/>
      <stop offset="0.234375" stop-color="#FAB00C"/>
      <stop offset="0.242188" stop-color="#FAAF0C"/>
      <stop offset="0.25" stop-color="#FAAE0C"/>
      <stop offset="0.257812" stop-color="#FAAD0C"/>
      <stop offset="0.265625" stop-color="#FAAD0C"/>
      <stop offset="0.273438" stop-color="#FAAC0C"/>
      <stop offset="0.28125" stop-color="#FAAB0C"/>
      <stop offset="0.289063" stop-color="#FAAA0B"/>
      <stop offset="0.296875" stop-color="#FAAA0B"/>
      <stop offset="0.304688" stop-color="#FAA90B"/>
      <stop offset="0.3125" stop-color="#FAA80B"/>
      <stop offset="0.320313" stop-color="#FAA70B"/>
      <stop offset="0.328125" stop-color="#FAA70B"/>
      <stop offset="0.335937" stop-color="#FAA60B"/>
      <stop offset="0.34375" stop-color="#FAA50B"/>
      <stop offset="0.351563" stop-color="#FAA40B"/>
      <stop offset="0.359375" stop-color="#FAA40B"/>
      <stop offset="0.367187" stop-color="#FAA30B"/>
      <stop offset="0.375" stop-color="#FAA20B"/>
      <stop offset="0.382812" stop-color="#FBA10B"/>
      <stop offset="0.390625" stop-color="#FBA00B"/>
      <stop offset="0.398437" stop-color="#FBA00A"/>
      <stop offset="0.40625" stop-color="#FB9F0A"/>
      <stop offset="0.414062" stop-color="#FB9E0A"/>
      <stop offset="0.421875" stop-color="#FB9D0A"/>
      <stop offset="0.429688" stop-color="#FB9D0A"/>
      <stop offset="0.4375" stop-color="#FB9C0A"/>
      <stop offset="0.445312" stop-color="#FB9B0A"/>
      <stop offset="0.453125" stop-color="#FB9A0A"/>
      <stop offset="0.460937" stop-color="#FB9A0A"/>
      <stop offset="0.46875" stop-color="#FB990A"/>
      <stop offset="0.476563" stop-color="#FB980A"/>
      <stop offset="0.484375" stop-color="#FB970A"/>
      <stop offset="0.492187" stop-color="#FB970A"/>
      <stop offset="0.5" stop-color="#FB960A"/>
      <stop offset="0.507813" stop-color="#FB9509"/>
      <stop offset="0.515625" stop-color="#FB9409"/>
      <stop offset="0.523437" stop-color="#FB9409"/>
      <stop offset="0.53125" stop-color="#FB9309"/>
      <stop offset="0.539063" stop-color="#FB9209"/>
      <stop offset="0.546875" stop-color="#FB9109"/>
      <stop offset="0.554687" stop-color="#FB9109"/>
      <stop offset="0.5625" stop-color="#FB9009"/>
      <stop offset="0.570312" stop-color="#FB8F09"/>
      <stop offset="0.578125" stop-color="#FB8E09"/>
      <stop offset="0.585938" stop-color="#FB8D09"/>
      <stop offset="0.59375" stop-color="#FB8D09"/>
      <stop offset="0.601563" stop-color="#FB8C09"/>
      <stop offset="0.609375" stop-color="#FB8B09"/>
      <stop offset="0.617188" stop-color="#FB8A08"/>
      <stop offset="0.625" stop-color="#FB8A08"/>
      <stop offset="0.632813" stop-color="#FC8908"/>
      <stop offset="0.640625" stop-color="#FC8808"/>
      <stop offset="0.648437" stop-color="#FC8708"/>
      <stop offset="0.65625" stop-color="#FC8708"/>
      <stop offset="0.664063" stop-color="#FC8608"/>
      <stop offset="0.671875" stop-color="#FC8508"/>
      <stop offset="0.679688" stop-color="#FC8408"/>
      <stop offset="0.6875" stop-color="#FC8408"/>
      <stop offset="0.695313" stop-color="#FC8308"/>
      <stop offset="0.703125" stop-color="#FC8208"/>
      <stop offset="0.710938" stop-color="#FC8108"/>
      <stop offset="0.71875" stop-color="#FC8108"/>
      <stop offset="0.726563" stop-color="#FC8007"/>
      <stop offset="0.734375" stop-color="#FC7F07"/>
      <stop offset="0.742188" stop-color="#FC7E07"/>
      <stop offset="0.75" stop-color="#FC7D07"/>
      <stop offset="0.757813" stop-color="#FC7D07"/>
      <stop offset="0.765625" stop-color="#FC7C07"/>
      <stop offset="0.773437" stop-color="#FC7B07"/>
      <stop offset="0.78125" stop-color="#FC7A07"/>
      <stop offset="0.789063" stop-color="#FC7A07"/>
      <stop offset="0.796875" stop-color="#FC7907"/>
      <stop offset="0.804687" stop-color="#FC7807"/>
      <stop offset="0.8125" stop-color="#FC7707"/>
      <stop offset="0.820313" stop-color="#FC7707"/>
      <stop offset="0.828125" stop-color="#FC7607"/>
      <stop offset="0.835938" stop-color="#FC7506"/>
      <stop offset="0.84375" stop-color="#FC7406"/>
      <stop offset="0.851563" stop-color="#FC7406"/>
      <stop offset="0.859375" stop-color="#FC7306"/>
      <stop offset="0.867188" stop-color="#FC7206"/>
      <stop offset="0.875" stop-color="#FC7106"/>
      <stop offset="0.882813" stop-color="#FD7106"/>
      <stop offset="0.890625" stop-color="#FD7006"/>
      <stop offset="0.898437" stop-color="#FD6F06"/>
      <stop offset="0.90625" stop-color="#FD6E06"/>
      <stop offset="0.914063" stop-color="#FD6E06"/>
      <stop offset="0.921875" stop-color="#FD6D06"/>
      <stop offset="0.929688" stop-color="#FD6C06"/>
      <stop offset="0.9375" stop-color="#FD6B06"/>
      <stop offset="0.945313" stop-color="#FD6A06"/>
      <stop offset="0.953125" stop-color="#FD6A05"/>
      <stop offset="0.960938" stop-color="#FD6905"/>
      <stop offset="0.96875" stop-color="#FD6805"/>
      <stop offset="0.976563" stop-color="#FD6705"/>
      <stop offset="0.984375" stop-color="#FD6705"/>
      <stop offset="0.992188" stop-color="#FD6605"/>
      <stop offset="1" stop-color="#FD6505"/>
    </linearGradient>
    <clipPath id="clip0_1080_5466">
      <rect width="75.452" height="20" fill="white" transform="translate(0.0015564)"/>
    </clipPath>
  </defs>
</svg>
