<svg version="1.0" xmlns="http://www.w3.org/2000/svg"
  viewBox="0 0 2252.000000 565.000000"
 preserveAspectRatio="xMidYMid meet">

<g transform="translate(0.000000,565.000000) scale(0.100000,-0.100000)"
fill="#000000" stroke="none">
<path d="M11652 4329 c-117 -20 -235 -107 -287 -213 -23 -47 -54 -211 -206
-1073 -98 -560 -181 -1029 -184 -1041 l-6 -24 563 7 c601 7 640 10 737 59 80
41 156 119 196 199 19 40 38 93 41 119 l7 48 -520 2 -519 3 152 855 c84 470
161 903 172 963 l19 107 -56 -1 c-31 -1 -80 -5 -109 -10z"/>
<path d="M21846 3873 c-2 -10 -23 -99 -46 -198 -23 -99 -43 -188 -46 -197 -4
-14 -20 -18 -91 -20 l-86 -3 -22 -97 -22 -98 84 0 c47 0 83 -4 83 -10 0 -5
-43 -194 -95 -420 -111 -478 -122 -543 -105 -637 13 -78 31 -116 74 -161 84
-91 256 -123 466 -88 162 27 144 14 169 128 11 56 20 103 17 105 -2 2 -41 -6
-87 -18 -158 -41 -303 -24 -349 41 -33 46 -44 121 -31 209 9 62 168 771 187
834 5 16 26 17 264 17 l260 0 5 23 c3 12 14 57 24 100 l18 77 -258 0 c-148 0
-259 4 -259 9 0 5 22 102 49 215 l48 206 -123 0 c-108 0 -123 -2 -128 -17z"/>
<path d="M688 3680 c-122 -21 -245 -114 -296 -225 -17 -37 -70 -317 -205
-1085 l-182 -1035 209 -3 c115 -1 211 -1 213 1 2 2 29 150 61 328 l58 324 374
6 c398 6 406 6 510 59 125 63 198 167 234 333 l6 27 -525 0 -525 0 5 23 c3 12
52 290 110 617 58 327 107 605 110 618 5 21 3 22 -52 21 -32 -1 -79 -5 -105
-9z"/>
<path d="M1213 3674 c-177 -30 -304 -144 -357 -323 -30 -101 -81 -91 458 -91
l474 0 30 -25 c17 -14 33 -38 37 -54 4 -18 -25 -209 -74 -493 -45 -255 -81
-466 -81 -470 0 -11 135 33 215 72 105 50 190 137 242 245 33 71 40 102 90
423 30 191 55 383 56 427 2 168 -86 267 -259 295 -88 14 -739 9 -831 -6z"/>
<path d="M3296 3679 c-231 -35 -435 -138 -601 -304 -265 -265 -367 -631 -261
-937 35 -99 81 -173 156 -249 110 -112 260 -181 428 -198 193 -20 357 35 503
166 22 20 41 34 44 32 3 -4 -2 -33 -29 -181 l-5 -28 212 0 213 0 123 697 c100
564 122 710 118 760 -8 102 -65 180 -167 227 -42 20 -63 21 -360 23 -173 1
-342 -3 -374 -8z m364 -441 c18 -13 42 -40 53 -62 19 -35 19 -44 8 -120 -44
-289 -82 -388 -185 -492 -220 -220 -574 -199 -681 40 -109 242 71 563 358 641
35 9 111 14 233 14 172 1 183 0 214 -21z"/>
<path d="M4371 3229 l-83 -461 4 -137 c5 -111 10 -151 32 -218 81 -249 291
-401 581 -419 179 -12 334 45 455 167 39 38 70 64 70 56 0 -38 -24 -136 -46
-185 -56 -127 -152 -212 -287 -254 -60 -19 -94 -22 -207 -22 -119 1 -261 18
-310 38 -14 6 -20 -25 -44 -205 -15 -116 -26 -213 -23 -215 15 -16 204 -45
322 -51 522 -23 870 243 1015 776 17 65 290 1549 290 1580 0 8 -61 11 -217 9
l-216 -3 -72 -397 c-68 -371 -75 -403 -112 -480 -87 -180 -233 -287 -442 -323
-160 -28 -264 12 -317 121 -45 93 -40 165 45 634 39 217 74 407 77 423 l6 27
-219 0 -219 0 -83 -461z"/>
<path d="M6518 3676 c-92 -25 -175 -103 -198 -185 -6 -20 -66 -358 -135 -751
-69 -393 -127 -725 -130 -737 l-5 -23 213 0 213 0 104 588 c57 323 107 601
112 619 5 18 21 42 36 53 26 21 35 22 227 18 196 -3 201 -4 257 -31 72 -35
140 -110 168 -185 42 -111 39 -157 -39 -602 -39 -223 -74 -417 -77 -433 l-6
-27 214 2 213 3 82 460 c75 418 86 466 117 530 78 158 257 278 416 279 117 1
247 -101 289 -226 35 -102 28 -176 -53 -633 l-72 -410 209 -3 c116 -1 211 -1
213 0 1 2 38 194 80 428 77 419 78 427 78 590 0 153 -2 171 -27 246 -64 192
-196 328 -387 399 -69 26 -87 28 -220 29 -109 1 -164 -4 -220 -17 -100 -25
-299 -123 -384 -190 l-70 -55 -38 48 c-73 91 -181 160 -318 201 -71 21 -96 23
-445 25 -282 3 -381 0 -417 -10z"/>
<path d="M12084 3679 c-102 -13 -184 -51 -262 -122 -66 -62 -111 -149 -131
-254 l-8 -42 484 -3 485 -3 24 -28 c18 -21 24 -40 24 -75 0 -26 -35 -249 -78
-495 -58 -329 -75 -446 -65 -443 8 3 39 13 71 22 192 55 328 171 392 334 24
62 130 729 130 820 0 132 -60 224 -176 271 -59 24 -61 24 -449 24 -214 0 -413
-3 -441 -6z"/>
<path d="M10115 3659 c-282 -36 -549 -189 -718 -412 -145 -189 -206 -376 -194
-594 9 -181 67 -314 191 -437 124 -124 265 -187 457 -205 258 -24 507 54 736
231 157 121 294 324 345 511 27 103 34 273 14 367 -64 300 -303 502 -641 540
-100 11 -92 11 -190 -1z m197 -438 c71 -27 145 -93 178 -157 35 -70 40 -188
11 -283 -76 -251 -353 -410 -605 -345 -159 41 -246 143 -254 299 -12 235 149
437 400 501 73 19 199 11 270 -15z"/>
<path d="M19094 3490 c-226 -31 -413 -138 -555 -317 -158 -199 -230 -403 -232
-658 -1 -135 11 -199 55 -293 136 -290 583 -378 1063 -210 50 17 93 34 97 37
8 7 58 229 58 255 0 11 -16 6 -59 -20 -252 -150 -578 -197 -754 -108 -97 50
-165 133 -193 236 -14 55 -18 176 -8 241 l7 37 553 0 c518 0 553 1 558 18 12
41 35 183 41 257 22 265 -113 462 -350 513 -72 16 -210 22 -281 12z m125 -190
c94 -12 141 -33 187 -82 64 -67 89 -160 78 -280 l-7 -68 -434 0 -434 0 6 23
c20 69 78 169 131 226 98 107 205 165 334 181 30 4 55 8 55 9 0 0 38 -4 84 -9z"/>
<path d="M20778 3490 c-97 -12 -197 -51 -312 -121 -61 -36 -112 -63 -114 -59
-2 4 4 38 13 75 8 36 15 68 15 71 0 3 -55 3 -122 2 l-122 -3 -236 -1022 -236
-1023 122 0 122 0 30 128 c17 70 49 211 73 313 l42 186 71 -33 c98 -45 178
-63 303 -71 91 -5 121 -2 193 16 327 82 573 369 661 771 18 83 23 136 23 250
0 214 -35 321 -136 416 -62 58 -136 92 -229 104 -82 10 -80 10 -161 0z m129
-248 c51 -27 97 -82 119 -141 9 -26 18 -91 21 -151 17 -361 -161 -690 -421
-780 -134 -46 -309 -34 -453 31 -37 17 -69 32 -70 33 -3 3 180 807 192 846 10
30 216 141 319 172 86 25 235 20 293 -10z"/>
<path d="M14735 3480 c-116 -14 -299 -52 -311 -64 -7 -6 -19 -54 -29 -106 -9
-52 -19 -105 -22 -117 -5 -21 -4 -21 81 8 209 70 382 96 525 79 197 -24 278
-117 240 -278 l-14 -57 -123 -7 c-651 -36 -955 -188 -1028 -515 -19 -88 -15
-201 11 -276 23 -64 100 -146 168 -180 82 -40 147 -51 267 -44 143 8 267 49
407 134 58 34 106 63 108 63 1 0 -5 -36 -15 -80 l-18 -80 122 0 121 0 118 513
c140 610 141 614 133 697 -22 215 -175 308 -516 315 -85 2 -186 0 -225 -5z
m425 -740 c0 -5 -21 -99 -46 -207 -40 -172 -49 -201 -72 -221 -45 -39 -282
-149 -346 -161 -135 -25 -274 -7 -335 45 -94 79 -73 277 41 379 88 80 264 135
503 159 174 17 255 19 255 6z"/>
<path d="M16408 3480 c-91 -16 -164 -42 -263 -93 -85 -44 -115 -67 -200 -152
-104 -104 -162 -189 -210 -307 -60 -148 -91 -328 -82 -483 13 -225 103 -372
278 -455 106 -50 191 -63 358 -58 138 5 153 8 271 47 69 23 143 49 165 59 l39
18 27 132 c14 73 23 132 19 132 -4 0 -44 -22 -89 -49 -216 -130 -433 -172
-596 -115 -70 24 -154 110 -186 189 -21 54 -24 74 -23 205 1 116 5 161 23 225
41 152 116 281 218 376 102 94 214 134 368 133 132 -2 261 -52 383 -151 24
-20 44 -34 46 -32 2 2 13 56 25 119 12 63 24 123 27 133 4 14 -8 24 -58 46
-137 62 -223 83 -363 87 -71 1 -151 -1 -177 -6z"/>
<path d="M17725 3479 c-360 -71 -614 -323 -717 -709 -28 -108 -37 -361 -14
-450 50 -200 190 -332 396 -376 114 -24 337 -15 451 20 73 21 238 82 246 90 6
6 54 258 50 262 -2 3 -42 -18 -88 -46 -299 -180 -604 -185 -736 -12 -91 120
-100 384 -20 605 75 206 235 367 407 408 69 16 211 16 270 0 74 -21 181 -75
245 -124 33 -25 61 -44 62 -43 2 2 15 60 29 131 25 122 25 129 9 142 -27 19
-155 71 -221 89 -71 19 -298 27 -369 13z"/>
<path d="M13130 2215 c0 -10 10 -15 30 -15 35 0 36 -9 20 -106 -6 -32 -12 -71
-15 -86 -3 -19 0 -28 9 -28 16 0 20 13 37 132 l12 87 35 3 c20 2 37 9 40 16 3
9 -18 12 -82 12 -70 0 -86 -3 -86 -15z"/>
<path d="M13350 2223 c0 -5 -9 -61 -19 -125 -14 -93 -15 -118 -5 -118 16 0 19
13 35 122 7 48 15 85 19 83 3 -2 15 -49 25 -104 10 -56 22 -101 27 -101 4 0
32 48 62 108 30 59 55 100 55 92 1 -16 -15 -124 -25 -172 -4 -21 -2 -28 10
-28 9 0 16 2 16 5 0 10 30 200 35 223 5 18 1 22 -20 22 -21 0 -31 -13 -74 -97
-29 -58 -51 -92 -54 -83 -3 8 -10 44 -17 80 -17 95 -19 100 -46 100 -13 0 -24
-3 -24 -7z"/>
</g>
</svg>