<svg viewBox="0 0 63 20" fill="none" xmlns="http://www.w3.org/2000/svg">
  <g clip-path="url(#clip0_1080_5428)">
    <path d="M27.3253 19.7115H22.3192L25.4504 0.350922H30.4561L27.3253 19.7115Z" fill="currentColor"/>
    <path
        d="M45.4726 0.824224C44.4851 0.432491 42.919 -3.05176e-05 40.9825 -3.05176e-05C36.0389 -3.05176e-05 32.5577 2.63616 32.5363 6.40512C32.4953 9.18585 35.0288 10.7303 36.9237 11.6575C38.8604 12.605 39.5188 13.2234 39.5188 14.0679C39.4991 15.3649 37.9538 15.9627 36.5125 15.9627C34.5139 15.9627 33.443 15.6545 31.8156 14.9329L31.1564 14.6236L30.4558 18.9696C31.63 19.5045 33.7931 19.9792 36.0389 20C41.2916 20 44.7113 17.4046 44.7518 13.3881C44.7718 11.1842 43.434 9.49546 40.5497 8.11549C38.7989 7.22965 37.7266 6.63233 37.7266 5.72595C37.7471 4.90197 38.6335 4.058 40.61 4.058C42.2374 4.01667 43.4331 4.40785 44.339 4.79931L44.7917 5.0049L45.4726 0.824224Z"
        fill="currentColor"/>
    <path
        d="M52.126 12.8527C52.5383 11.7405 54.1246 7.43578 54.1246 7.43578C54.1038 7.47712 54.5361 6.30302 54.7833 5.58224L55.1331 7.25046C55.1331 7.25046 56.0811 11.8847 56.287 12.8527C55.5046 12.8527 53.1148 12.8527 52.126 12.8527ZM58.3053 0.350922H54.4331C53.239 0.350922 52.3318 0.700771 51.8167 1.95727L44.3808 19.7112H49.6335C49.6335 19.7112 50.4983 17.3216 50.6842 16.807C51.2604 16.807 56.3702 16.807 57.1115 16.807C57.2552 17.4867 57.7088 19.7112 57.7088 19.7112H62.3439L58.3053 0.350922Z"
        fill="currentColor"/>
    <path
        d="M18.138 0.350922L13.2355 13.553L12.6998 10.8754C11.7934 7.78591 8.95078 4.42921 5.77859 2.76018L10.2692 19.6909H15.5629L23.4315 0.350922H18.138Z"
        fill="currentColor"/>
    <path
        d="M8.68305 0.350922H0.628845L0.546448 0.742107C6.82923 2.34873 10.9902 6.22144 12.6997 10.8762L10.9489 1.97835C10.6606 0.741833 9.77476 0.39171 8.68305 0.350922Z"
        fill="currentColor"/>
  </g>
  <defs>
    <clipPath id="clip0_1080_5428">
      <rect width="61.7974" height="20" fill="currentColor" transform="translate(0.546448)"/>
    </clipPath>
  </defs>
</svg>
