<svg viewBox="0 0 32 32" fill="none" xmlns="http://www.w3.org/2000/svg">
    <path d="M13.6563 2.3125L11.3438 4.625L8 4.6375L4.65625 4.65625L4.6375 8L4.625 11.3437L2.29375 13.6687L-0.03125 16L2.29375 18.325L4.625 20.6562L4.6375 24L4.65625 27.3437L8 27.3625L11.3438 27.375L13.6688 29.7062L16 32.0312L18.3313 29.7062L20.6563 27.375L24 27.3625L27.3438 27.3437L27.3625 24L27.375 20.6562L29.7063 18.325L32.0313 16L29.7063 13.6687L27.375 11.3437L27.3625 8L27.3438 4.65625L24 4.6375L20.6563 4.625L18.3438 2.3125C17.075 1.0375 16.0188 -4.77303e-07 16 -4.77303e-07C15.9813 -4.77303e-07 14.925 1.0375 13.6563 2.3125ZM17.9688 4.5625L19.9063 6.5H22.7H25.5V9.29375V12.0937L27.45 14.0437L29.4063 16L27.9188 17.4875L26.4375 18.9687V22.7062V26.4375H22.7063H18.9688L17.4875 27.9187L16 29.4062L14.5125 27.9187L13.0313 26.4375H9.325H5.625V22.7375V19.0312L4.1125 17.5187L2.59375 16L4.55 14.0437L6.5 12.0937V9.29375V6.5H9.3H12.0938L14.0313 4.5625C15.0938 3.49375 15.9813 2.625 16 2.625C16.0188 2.625 16.9063 3.49375 17.9688 4.5625Z" fill="currentColor"/>
    <path d="M14.3125 6.125V6.75H14.9375H15.5625V6.125V5.5H14.9375H14.3125V6.125Z" fill="currentColor"/>
    <path d="M16.5 6.125V6.75H17.125H17.75V6.125V5.5H17.125H16.5V6.125Z" fill="currentColor"/>
    <path d="M6.875 8.65625V10.4375H8.4375H10V10.9375V11.4375H8.4375H6.875V12.0312V12.625H9.03125H11.1875V9.75V6.875H9.03125H6.875V8.65625ZM10 8.65625V9.25H9H8V8.65625V8.0625H9H10V8.65625Z" fill="currentColor"/>
    <path d="M12.8125 9.15625V11.4375H12.0938H11.375V12.0312V12.625H12.6875H14V11.5312V10.4375H15.9375H17.875V11.5312V12.625H21.5313H25.1875V9.75V6.875H23.0313H20.875V9.15625V11.4375H19.9688H19.0625V9.15625V6.875H18.5H17.9375V8.0625V9.25H15.9688H14V8.0625V6.875H13.4063H12.8125V9.15625ZM24 9.75V11.4375H23.0313H22.0625V9.75V8.0625H23.0313H24V9.75Z" fill="currentColor"/>
    <path d="M5.95626 17.2312C5.98126 19.6562 6.00001 22.6375 6.00001 23.8562V26.0625H9.31251H12.625V24.15V22.2375L14.2813 23.8562C15.1938 24.7437 15.9688 25.4687 16 25.4687C16.0313 25.4687 16.8125 24.725 17.75 23.8187L19.4438 22.175L19.425 24.1187L19.4063 26.0625H22.7375H26.0625V19.4375V12.8125H23.0813H20.0938L18.05 14.8562L16 16.9062L13.95 14.8562L11.9063 12.8125H8.91251H5.91876L5.95626 17.2312Z" fill="currentColor"/>
</svg>
