<svg viewBox="0 0 51 20" fill="none" xmlns="http://www.w3.org/2000/svg">
  <g clip-path="url(#clip0_1080_5463)">
    <path fill-rule="evenodd" clip-rule="evenodd" d="M15.9392 15.1601V12.8316C14.8581 12.9148 13.777 13.3306 12.9454 13.9127C13.6939 14.578 14.7666 14.9938 15.9392 15.1601ZM15.9392 11.501V10.3368H10.9413C11.0244 11.3347 11.4402 12.1663 12.0223 12.9148C13.1034 12.158 14.434 11.5759 15.9392 11.501ZM15.9392 9.08108V7.91684C14.434 7.83368 13.1034 7.25156 12.0223 6.50311C11.4319 7.25156 11.0993 8.16632 10.9413 9.08108H15.9392ZM15.9392 6.57796V4.24116C14.7749 4.40748 13.777 4.8316 12.9454 5.48856C13.7687 6.079 14.7666 6.50311 15.9392 6.57796ZM17.2697 4.24948V6.58627C18.3508 6.50311 19.4319 6.08731 20.2635 5.50519C19.4319 4.8316 18.3508 4.4158 17.2697 4.24948ZM17.2697 7.91684V9.08108H22.2677C22.1845 8.07484 21.7687 7.24324 21.1866 6.50311C20.1055 7.24324 18.6918 7.75052 17.2697 7.91684ZM17.2697 10.3285V11.4927C18.7749 11.5759 20.1055 12.158 21.1866 12.9064C21.7687 12.158 22.1013 11.2432 22.2677 10.3285H17.2697ZM17.2697 12.7484V15.0769C18.434 14.9106 19.4319 14.4948 20.2635 13.8295C19.4319 13.2474 18.3508 12.9148 17.2697 12.7484ZM9.52754 9.6632C9.52754 5.91268 12.6876 2.91891 16.6045 2.91891C20.5213 2.91891 23.6814 5.91268 23.6814 9.6632C23.6814 13.4137 20.513 16.4075 16.6045 16.4075C12.6876 16.4075 9.52754 13.4137 9.52754 9.6632Z" fill="#F58423"/>
    <path fill-rule="evenodd" clip-rule="evenodd" d="M2.85811 0H21.6024V1.74636H7.27391C6.27599 1.74636 5.52755 2.4948 5.52755 3.40956V16.5738C5.52755 17.4886 6.27599 18.237 7.27391 18.237H21.5192V19.9834H2.85811C1.35292 19.9834 0.105515 18.8191 0.105515 17.4054V2.57796C0.113831 1.16424 1.36123 0 2.85811 0ZM32.3467 18.1622C31.3488 18.1622 30.5172 17.4137 30.5172 16.499V3.41788C30.5172 2.50312 31.2656 1.75468 32.2635 1.75468H32.3467C33.3529 1.75468 34.1014 2.50312 34.1014 3.41788V16.5821C34.1014 17.4137 33.3446 18.1622 32.3467 18.1622ZM41.0868 1.74636C40.0889 1.74636 39.3404 2.4948 39.3404 3.40956V16.5738C39.3404 17.4886 40.0889 18.237 41.0868 18.237H41.5026C43.3404 18.237 44.8373 16.5738 44.8373 14.5696C44.8373 12.5655 43.3404 10.9023 41.5026 10.9023H41.0868V9.07276H41.5026C43.3404 9.07276 44.8373 7.40956 44.8373 5.4054C44.8373 3.40125 43.3404 1.73805 41.5026 1.73805H41.0868V1.74636ZM23.4319 19.9917V18.2453C24.4298 18.2453 25.2614 17.4969 25.2614 16.5821V3.41788C25.2614 2.50312 24.513 1.75468 23.5151 1.75468V0.00831525H44.0889C46.9163 0.00831525 49.2531 2.25364 49.2531 5.00624C49.2531 6.92723 48.0889 8.6736 46.4174 9.5052C48.4964 10.2536 50.0016 12.2495 50.0016 14.5863C50.0016 17.58 47.5068 20 44.5047 20H23.4319V19.9917Z" fill="#1858A8"/>
  </g>
  <defs>
    <clipPath id="clip0_1080_5463">
      <rect width="49.896" height="20" fill="white" transform="translate(0.105515)"/>
    </clipPath>
  </defs>
</svg>
