<svg viewBox="0 0 393 271" fill="none" xmlns="http://www.w3.org/2000/svg">
  <path fill-rule="evenodd" clip-rule="evenodd" d="M376.001 270.279C386.966 242.96 393 213.13 393 181.89C393 108.87 360.034 43.5497 308.173 0L20 0C8.9543 0 0 8.95431 0 20V250.279C0 261.324 8.95429 270.279 20 270.279H376.001Z" fill="white" fill-opacity="0.06"/>
  <path fill-rule="evenodd" clip-rule="evenodd" d="M350.099 270.279C358.958 245.389 363.781 218.586 363.781 190.656C363.781 112.558 326.07 43.2668 267.864 0L20 0C8.9543 0 0 8.95431 0 20V250.279C0 261.324 8.95429 270.279 20 270.279H350.099Z" fill="white" fill-opacity="0.06"/>
</svg>
