<svg viewBox="0 0 493 273" fill="none" xmlns="http://www.w3.org/2000/svg">
  <path fill-rule="evenodd" clip-rule="evenodd" d="M196.876 85.0734C217.34 132.796 237.001 178.647 327.326 176.183C410.207 173.923 462.776 182.278 492.7 196.724V242.673C492.7 258.919 479.531 272.088 463.285 272.088H29.4149C13.1695 272.088 0 258.919 0 242.673V29.4149C0 13.1695 13.1695 -3.05176e-05 29.4149 -3.05176e-05L132.063 -3.05176e-05C168.808 19.6158 183.026 52.7734 196.876 85.0734Z" fill="white" fill-opacity="0.08"/>
  <path fill-rule="evenodd" clip-rule="evenodd" d="M25.2767 0.288787C10.9907 2.30023 0 14.5741 0 29.4149V242.673C0 258.919 13.1695 272.088 29.4149 272.088H463.285C474.545 272.088 484.328 265.761 489.271 256.468C500.957 215.54 456.79 181.099 302.238 185.314C215.989 187.666 197.215 143.884 177.674 98.315C156.542 49.034 134.514 -2.3378 25.2767 0.288787Z" fill="white" fill-opacity="0.08"/>
</svg>
